<svg id="AppStore" xmlns="http://www.w3.org/2000/svg" width="141" height="33" viewBox="0 0 141 33">
  <path id="Imported_Layers" data-name="Imported Layers" d="M17.158,27.985a4.148,4.148,0,0,1-2-.509,5.541,5.541,0,0,0-2.745-.63,6.513,6.513,0,0,0-2.744.628,5.074,5.074,0,0,1-2.053.512c-1.57,0-3.459-1.632-5.054-4.364A18.388,18.388,0,0,1,0,14.831,8.792,8.792,0,0,1,2.514,8.242,6.874,6.874,0,0,1,7.07,6.249a6.7,6.7,0,0,1,2.96.761,5.51,5.51,0,0,0,2.356.647,5.4,5.4,0,0,0,2.118-.6,7.6,7.6,0,0,1,3.185-.807,6.106,6.106,0,0,1,3.874,1.569A8.472,8.472,0,0,1,23,9.386a6.527,6.527,0,0,0-3.163,5.445,5.826,5.826,0,0,0,1.987,4.515,6.353,6.353,0,0,0,1.987,1.2.052.052,0,0,1-.005.015,26.7,26.7,0,0,1-2,3.706C20.69,25.961,18.977,27.985,17.158,27.985ZM11.784,6.6h0l-.154,0a5.474,5.474,0,0,1,1.236-4.2A6.551,6.551,0,0,1,17.132,0,6,6,0,0,1,15.64,4.64,5.187,5.187,0,0,1,11.784,6.6Z" fill="#fff"/>
  <text id="App_Store" data-name="App Store" transform="translate(35 27)" fill="#fff" font-size="24" font-family="SegoeUI, Segoe UI"><tspan x="0" y="0">App Store</tspan></text>
</svg>
