<?xml version="1.0" encoding="UTF-8" standalone="no"?>
<svg width="24px" height="23px" viewBox="0 0 24 23" version="1.1" xmlns="http://www.w3.org/2000/svg" xmlns:xlink="http://www.w3.org/1999/xlink">
    <!-- Generator: Sketch 39.1 (31720) - http://www.bohemiancoding.com/sketch -->
    <title>detail_kalender</title>
    <desc>Created with Sketch.</desc>
    <defs></defs>
    <g id="Icons" stroke="none" stroke-width="1" fill="none" fill-rule="evenodd">
        <g id="detail_kalender" transform="translate(-12.000000, -13.000000)" fill="#000000">
            <g transform="translate(12.000000, 13.000000)" id="Shape">
                <path d="M20.207828,1.55716129 L17.2141075,1.55716129 L17.2141075,0.808688172 C17.2141075,0.359655914 16.9147527,0.0602150538 16.4656344,0.0602150538 C16.0165161,0.0602150538 15.7171613,0.359569892 15.7171613,0.808688172 L15.7171613,1.55716129 L8.23286022,1.55716129 L8.23286022,0.808688172 C8.23286022,0.359655914 7.93350538,0.0602150538 7.4843871,0.0602150538 C7.03535484,0.0602150538 6.73591398,0.359569892 6.73591398,0.808688172 L6.73591398,1.55716129 L3.74219355,1.55716129 C1.64653763,1.55716129 0,3.20369892 0,5.29935484 L0,18.7712688 C0,20.8669247 1.64653763,22.5134624 3.74219355,22.5134624 L20.207828,22.5134624 C22.3034839,22.5134624 23.9500215,20.8669247 23.9500215,18.7712688 L23.9500215,5.29935484 C23.9500215,3.20369892 22.3034839,1.55716129 20.207828,1.55716129 L20.207828,1.55716129 Z M1.49686022,5.29935484 C1.49686022,4.10184946 2.54468817,3.05402151 3.74219355,3.05402151 L6.73591398,3.05402151 L6.73591398,3.80249462 C6.73591398,4.25152688 7.03526882,4.55096774 7.4843871,4.55096774 C7.93341935,4.55096774 8.23286022,4.2516129 8.23286022,3.80249462 L8.23286022,3.05402151 L15.7172473,3.05402151 L15.7172473,3.80249462 C15.7172473,4.25152688 16.0166022,4.55096774 16.4657204,4.55096774 C16.9148387,4.55096774 17.2141935,4.2516129 17.2141935,3.80249462 L17.2141935,3.05402151 L20.207914,3.05402151 C21.4054194,3.05402151 22.4532473,4.10184946 22.4532473,5.29935484 L22.4532473,7.54468817 L1.49686022,7.54468817 L1.49686022,5.29935484 L1.49686022,5.29935484 Z M22.4531613,18.7712688 C22.4531613,19.9687742 21.4053333,21.0166022 20.207828,21.0166022 L3.74219355,21.0166022 C2.54468817,21.0166022 1.49686022,19.9687742 1.49686022,18.7712688 L1.49686022,9.04154839 L22.4531613,9.04154839 L22.4531613,18.7712688 L22.4531613,18.7712688 Z"></path>
                <path d="M5.23905376,18.7712688 C5.68808602,18.7712688 5.98752688,18.6215914 6.28688172,18.3222366 C6.58623656,18.0228817 6.73591398,17.5737634 6.73591398,17.2744086 C6.73591398,16.9750538 6.58623656,16.5259355 6.28688172,16.2265806 C5.68817204,15.627871 4.79002151,15.627871 4.19122581,16.2265806 C3.89187097,16.5259355 3.74219355,16.8252903 3.74219355,17.2744086 C3.74219355,17.5737634 3.89187097,18.0228817 4.19122581,18.3222366 C4.49058065,18.6215914 4.79002151,18.7712688 5.23905376,18.7712688 L5.23905376,18.7712688 Z"></path>
                <path d="M5.23905376,14.2806022 C5.68808602,14.2806022 5.98752688,14.1309247 6.28688172,13.8315699 C6.58623656,13.5322151 6.73591398,13.0830968 6.73591398,12.7837419 C6.73591398,12.4843871 6.58623656,12.0352688 6.28688172,11.735914 C5.68817204,11.1372043 4.79002151,11.1372043 4.19122581,11.735914 C3.89187097,12.0352688 3.74219355,12.3346237 3.74219355,12.7837419 C3.74219355,13.2328602 3.89187097,13.5322151 4.19122581,13.8315699 C4.49058065,14.1309247 4.79002151,14.2806022 5.23905376,14.2806022 L5.23905376,14.2806022 Z"></path>
                <path d="M9.72972043,18.7712688 C10.1787527,18.7712688 10.4781935,18.6215914 10.7775484,18.3222366 C11.0769032,18.0228817 11.2265806,17.5737634 11.2265806,17.2744086 C11.2265806,16.9750538 11.0769032,16.5259355 10.7775484,16.2265806 C10.1788387,15.627871 9.28068817,15.627871 8.68189247,16.2265806 C8.38253763,16.5259355 8.23286022,16.9750538 8.23286022,17.2744086 C8.23286022,17.5737634 8.38253763,18.0228817 8.68189247,18.3222366 C8.98124731,18.6215914 9.28068817,18.7712688 9.72972043,18.7712688 L9.72972043,18.7712688 Z"></path>
                <path d="M9.72972043,14.2806022 C10.1787527,14.2806022 10.4781935,14.1309247 10.7775484,13.8315699 C11.0769032,13.5322151 11.2265806,13.0830968 11.2265806,12.7837419 C11.2265806,12.4843871 11.0769032,12.0352688 10.7775484,11.735914 C10.1788387,11.1372043 9.28068817,11.1372043 8.68189247,11.735914 C8.38253763,12.0352688 8.23286022,12.4843871 8.23286022,12.7837419 C8.23286022,13.0830968 8.38253763,13.5322151 8.68189247,13.8315699 C8.98124731,14.1309247 9.28068817,14.2806022 9.72972043,14.2806022 L9.72972043,14.2806022 Z"></path>
                <path d="M14.2203011,18.7712688 C14.6693333,18.7712688 14.9687742,18.6215914 15.268129,18.3222366 C15.5674839,18.0228817 15.7171613,17.7235269 15.7171613,17.2744086 C15.7171613,16.8252903 15.5674839,16.5259355 15.268129,16.2265806 C14.6694194,15.627871 13.7712688,15.627871 13.1724731,16.2265806 C12.8731183,16.5259355 12.7234409,16.9750538 12.7234409,17.2744086 C12.7234409,17.5737634 12.8731183,18.0228817 13.1724731,18.3222366 C13.471828,18.6215914 13.7712688,18.7712688 14.2203011,18.7712688 L14.2203011,18.7712688 Z"></path>
                <path d="M14.2203011,14.2806022 C14.6693333,14.2806022 14.9687742,14.1309247 15.268129,13.8315699 C15.5674839,13.5322151 15.7171613,13.2328602 15.7171613,12.7837419 C15.7171613,12.4843871 15.5674839,12.0352688 15.268129,11.735914 C14.6694194,11.1372043 13.7712688,11.1372043 13.1724731,11.735914 C12.8731183,12.0352688 12.7234409,12.4843871 12.7234409,12.7837419 C12.7234409,13.0830968 12.8731183,13.5322151 13.1724731,13.8315699 C13.471828,14.1309247 13.7712688,14.2806022 14.2203011,14.2806022 L14.2203011,14.2806022 Z"></path>
                <path d="M18.7109677,18.7712688 C19.16,18.7712688 19.4594409,18.6215914 19.7587957,18.3222366 C20.0581505,18.0228817 20.207828,17.5737634 20.207828,17.2744086 C20.207828,16.9750538 20.0581505,16.5259355 19.7587957,16.2265806 C19.160086,15.627871 18.2619355,15.627871 17.6631398,16.2265806 C17.3637849,16.5259355 17.2141075,16.8252903 17.2141075,17.2744086 C17.2141075,17.5737634 17.3637849,18.0228817 17.6631398,18.3222366 C17.9624946,18.6215914 18.2619355,18.7712688 18.7109677,18.7712688 L18.7109677,18.7712688 Z"></path>
                <path d="M18.7109677,14.2806022 C19.16,14.2806022 19.4594409,14.1309247 19.7587957,13.8315699 C20.0581505,13.5322151 20.207828,13.2328602 20.207828,12.7837419 C20.207828,12.4843871 20.0581505,12.0352688 19.7587957,11.735914 C19.160086,11.1372043 18.2619355,11.1372043 17.6631398,11.735914 C17.3637849,12.0352688 17.2141075,12.4843871 17.2141075,12.7837419 C17.2141075,13.0830968 17.3637849,13.5322151 17.6631398,13.8315699 C17.9624946,14.1309247 18.2619355,14.2806022 18.7109677,14.2806022 L18.7109677,14.2806022 Z"></path>
            </g>
        </g>
    </g>
</svg>