<?xml version="1.0" encoding="UTF-8" standalone="no"?>
<svg width="16px" height="24px" viewBox="0 0 16 24" version="1.1" xmlns="http://www.w3.org/2000/svg" xmlns:xlink="http://www.w3.org/1999/xlink">
    <!-- Generator: Sketch 39.1 (31720) - http://www.bohemiancoding.com/sketch -->
    <title>detail_place</title>
    <desc>Created with Sketch.</desc>
    <defs></defs>
    <g id="Icons" stroke="none" stroke-width="1" fill="none" fill-rule="evenodd">
        <g id="detail_place" transform="translate(-16.000000, -12.000000)" fill="#000000">
            <g transform="translate(16.000000, 12.000000)" id="Shape">
                <path d="M7.88576327,0 C3.54896327,0 0.0207673469,3.52589388 0.0207673469,7.85985306 C0.0207673469,12.0250776 7.16835918,23.2955755 7.47262041,23.7733224 C7.56254694,23.9144816 7.71835102,24 7.88576327,24 C8.05317551,24 8.20897959,23.9144816 8.29885714,23.7733224 C8.60311837,23.2955755 15.7506612,12.0250286 15.7506612,7.85985306 C15.7506612,3.52589388 12.2224653,0 7.88576327,0 L7.88576327,0 Z M7.88576327,22.5858122 C7.2388898,21.5394612 5.92613878,19.3733878 4.62622041,16.9733388 C2.25418776,12.5936816 1.00040816,9.44233469 1.00040816,7.85985306 C1.00035918,4.06604082 4.08915918,0.979591837 7.88576327,0.979591837 C11.6823673,0.979591837 14.7710694,4.06604082 14.7710694,7.85985306 C14.7710694,9.44233469 13.5172408,12.5936816 11.1452571,16.9733388 C9.84533878,19.3733388 8.53258776,21.5394612 7.88576327,22.5858122 L7.88576327,22.5858122 Z"></path>
                <path d="M7.88566531,3.72592653 C5.83420408,3.72592653 4.16522449,5.34955102 4.16522449,7.34522449 C4.16522449,9.34084898 5.83420408,10.9643755 7.88566531,10.9643755 C9.93712653,10.9643755 11.6061061,9.34084898 11.6061061,7.34522449 C11.6061061,5.34955102 9.93712653,3.72592653 7.88566531,3.72592653 L7.88566531,3.72592653 Z M7.88566531,9.98473469 C6.3744,9.98473469 5.14481633,8.80065306 5.14481633,7.34517551 C5.14481633,5.88964898 6.3744,4.70546939 7.88566531,4.70546939 C9.39693061,4.70546939 10.6265143,5.88964898 10.6265143,7.34517551 C10.6265143,8.80065306 9.39697959,9.98473469 7.88566531,9.98473469 L7.88566531,9.98473469 Z"></path>
            </g>
        </g>
    </g>
</svg>