<?xml version="1.0" encoding="UTF-8" standalone="no"?>
<svg width="24px" height="23px" viewBox="0 0 24 23" version="1.1" xmlns="http://www.w3.org/2000/svg" xmlns:xlink="http://www.w3.org/1999/xlink">
    <!-- Generator: Sketch 39.1 (31720) - http://www.bohemiancoding.com/sketch -->
    <title>detail_like</title>
    <desc>Created with Sketch.</desc>
    <defs></defs>
    <g id="Icons" stroke="none" stroke-width="1" fill="none" fill-rule="evenodd">
        <g id="detail_like" transform="translate(-12.000000, -12.000000)" fill="#000000">
            <g transform="translate(12.000000, 12.000000)" id="Shape">
                <path d="M23.9589231,7.03476923 C23.6086154,3.17907692 20.8795385,0.381692308 17.4641538,0.381692308 C15.1887692,0.381692308 13.1053846,1.60615385 11.9330769,3.56861538 C10.7713846,1.58076923 8.77338462,0.381230769 6.53446154,0.381230769 C3.11953846,0.381230769 0.39,3.17861538 0.0401538462,7.03430769 C0.0124615385,7.20461538 -0.101076923,8.10092308 0.244153846,9.56261538 C0.741692308,11.6709231 1.89092308,13.5886154 3.56676923,15.1070769 L11.9275385,22.6943077 L20.4318462,15.1075385 C22.1076923,13.5886154 23.2569231,11.6713846 23.7544615,9.56261538 C24.0996923,8.10138462 23.9861538,7.20507692 23.9589231,7.03476923 L23.9589231,7.03476923 Z M22.8558462,9.35123077 C22.4016923,11.2767692 21.3489231,13.0310769 19.8143077,14.4212308 L11.9330769,21.4527692 L4.18707692,14.4230769 C2.64969231,13.0301538 1.59738462,11.2763077 1.14276923,9.35076923 C0.816,7.96753846 0.950307692,7.18615385 0.950769231,7.18107692 L0.957692308,7.13446154 C1.25769231,3.75646154 3.60276923,1.30430769 6.53446154,1.30430769 C8.69769231,1.30430769 10.602,2.63353846 11.5056923,4.77276923 L11.9307692,5.78030769 L12.3558462,4.77276923 C13.2452308,2.66630769 15.2501538,1.30476923 17.4646154,1.30476923 C20.3958462,1.30476923 22.7413846,3.75692308 23.0473846,7.17876923 C23.0483077,7.18615385 23.1826154,7.968 22.8558462,9.35123077 L22.8558462,9.35123077 Z"></path>
            </g>
        </g>
    </g>
</svg>