<?xml version="1.0" encoding="UTF-8" standalone="no"?>
<svg width="24px" height="23px" viewBox="0 0 24 23" version="1.1" xmlns="http://www.w3.org/2000/svg" xmlns:xlink="http://www.w3.org/1999/xlink">
    <!-- Generator: Sketch 39.1 (31720) - http://www.bohemiancoding.com/sketch -->
    <title>detail_merken_filled</title>
    <desc>Created with Sketch.</desc>
    <defs></defs>
    <g id="Icons" stroke="none" stroke-width="1" fill="none" fill-rule="evenodd">
        <g id="detail_merken_filled" transform="translate(-12.000000, -12.000000)" fill="#000000">
            <g transform="translate(12.000000, 12.000000)" id="Shape">
                <path d="M12.2412,0.9096 L15.2148,7.9476 L22.8276,8.6016 C23.3556,8.6472 23.5704,9.306 23.1696,9.6528 L17.3952,14.6556 L19.1256,22.098 C19.2456,22.6152 18.6852,23.022 18.2316,22.7472 L11.6892,18.8016 L5.1468,22.7472 C4.692,23.0208 4.1328,22.614 4.2528,22.098 L5.9832,14.6556 L0.2076,9.6516 C-0.1932,9.3048 0.0204,8.646 0.5496,8.6004 L8.1624,7.9464 L11.136,0.9096 C11.3424,0.42 12.0348,0.42 12.2412,0.9096 L12.2412,0.9096 Z"></path>
            </g>
        </g>
    </g>
</svg>