<svg xmlns="http://www.w3.org/2000/svg" width="1574.742" height="116.084" viewBox="0 0 1574.742 116.084">
  <defs>
    <style>
      .cls-1 {
        fill: #5e35b1;
      }
    </style>
  </defs>
  <path id="Electronic" class="cls-1" d="M1432.277,116.084H5.278a5.083,5.083,0,0,1-3.712-1.565A5.079,5.079,0,0,1,0,110.807V100.254a5.07,5.07,0,0,1,1.566-3.71,5.073,5.073,0,0,1,3.711-1.567H1569.465a5.35,5.35,0,0,1,5.278,5.277v10.553a5.347,5.347,0,0,1-5.277,5.277Zm31.659-31.657a5.353,5.353,0,0,1-5.277-5.278V68.6a5.35,5.35,0,0,1,5.277-5.277h105.529a5.351,5.351,0,0,1,5.278,5.277V79.149a5.355,5.355,0,0,1-5.278,5.278Zm-129,0a5.355,5.355,0,0,1-5.278-5.278V68.6a5.351,5.351,0,0,1,5.278-5.277h105.529a5.351,5.351,0,0,1,5.278,5.277V79.149a5.355,5.355,0,0,1-5.278,5.278Zm-131,0a5.353,5.353,0,0,1-5.277-5.278V68.6a5.35,5.35,0,0,1,5.277-5.277h105.53a5.35,5.35,0,0,1,5.277,5.277V79.149a5.353,5.353,0,0,1-5.277,5.278Zm-129,0a5.355,5.355,0,0,1-5.278-5.278V68.6a5.351,5.351,0,0,1,5.278-5.277h105.529a5.351,5.351,0,0,1,5.278,5.277V79.149a5.355,5.355,0,0,1-5.278,5.278Zm-130,0a5.353,5.353,0,0,1-5.277-5.278V68.6a5.35,5.35,0,0,1,5.277-5.277h105.529a5.35,5.35,0,0,1,5.277,5.277V79.149a5.353,5.353,0,0,1-5.277,5.278Zm-129,0a5.353,5.353,0,0,1-5.277-5.278V68.6a5.35,5.35,0,0,1,5.277-5.277H921.465a5.351,5.351,0,0,1,5.278,5.277V79.149a5.355,5.355,0,0,1-5.278,5.278Zm-131,0a5.353,5.353,0,0,1-5.277-5.278V68.6a5.35,5.35,0,0,1,5.277-5.277H790.466a5.351,5.351,0,0,1,5.278,5.277V79.149a5.355,5.355,0,0,1-5.278,5.278Zm-129,0a5.353,5.353,0,0,1-5.277-5.278V68.6a5.35,5.35,0,0,1,5.277-5.277H661.466a5.35,5.35,0,0,1,5.277,5.277V79.149a5.353,5.353,0,0,1-5.277,5.278Zm-130,0a5.355,5.355,0,0,1-5.278-5.278V68.6a5.351,5.351,0,0,1,5.278-5.277H531.465a5.351,5.351,0,0,1,5.278,5.277V79.149a5.355,5.355,0,0,1-5.278,5.278Zm-129,0a5.353,5.353,0,0,1-5.277-5.278V68.6a5.35,5.35,0,0,1,5.277-5.277h105.53a5.35,5.35,0,0,1,5.277,5.277V79.149a5.353,5.353,0,0,1-5.277,5.278Zm-131,0a5.355,5.355,0,0,1-5.278-5.278V68.6a5.351,5.351,0,0,1,5.278-5.277H271.465a5.351,5.351,0,0,1,5.278,5.277V79.149a5.355,5.355,0,0,1-5.278,5.278Zm-129,0a5.353,5.353,0,0,1-5.277-5.278V68.6a5.35,5.35,0,0,1,5.277-5.277H142.465a5.351,5.351,0,0,1,5.278,5.277V79.149a5.355,5.355,0,0,1-5.278,5.278Zm1405.895-31.66a5.461,5.461,0,0,0-2.365,0H1313.831a5.259,5.259,0,0,0-4.365,0H1182.83a5.461,5.461,0,0,0-2.365,0H1053.831a5.344,5.344,0,0,0-3.365,0H923.83a5.46,5.46,0,0,0-2.365,0H794.831a5.259,5.259,0,0,0-4.365,0H663.831a5.46,5.46,0,0,0-2.365,0H534.83a5.344,5.344,0,0,0-3.365,0H404.831a5.46,5.46,0,0,0-2.365,0H275.83a5.049,5.049,0,0,1-2.182-.474,5.049,5.049,0,0,1-2.182.474H144.831a5.306,5.306,0,0,1-1.184-.13,5.29,5.29,0,0,1-1.182.13H15.831A5.074,5.074,0,0,1,12.12,51.2a5.066,5.066,0,0,1-1.567-3.709V36.936a5.068,5.068,0,0,1,1.567-3.71,5.069,5.069,0,0,1,3.711-1.566H142.465a5.343,5.343,0,0,1,1.182.129,5.359,5.359,0,0,1,1.184-.129H271.465a5.052,5.052,0,0,1,2.182.473,5.046,5.046,0,0,1,2.182-.473H402.466a5.5,5.5,0,0,0,2.365,0H531.465a5.36,5.36,0,0,0,3.365,0H661.466a5.5,5.5,0,0,0,2.365,0H790.466a5.268,5.268,0,0,0,4.365,0H921.465a5.5,5.5,0,0,0,2.365,0h126.635a5.361,5.361,0,0,0,3.365,0h126.635a5.5,5.5,0,0,0,2.365,0h126.635a5.268,5.268,0,0,0,4.365,0h126.635a5.5,5.5,0,0,0,2.365,0h126.635a5.35,5.35,0,0,1,5.278,5.276V47.49a5.353,5.353,0,0,1-5.278,5.277Zm31.659-31.66a5.35,5.35,0,0,1-5.278-5.276V5.277a5.076,5.076,0,0,1,1.567-3.711A5.074,5.074,0,0,1,1474.49,0h94.975a5.077,5.077,0,0,1,3.711,1.566,5.078,5.078,0,0,1,1.567,3.711V15.831a5.35,5.35,0,0,1-5.278,5.276Zm-129,0a5.35,5.35,0,0,1-5.278-5.276V5.277a5.072,5.072,0,0,1,1.567-3.711A5.074,5.074,0,0,1,1345.49,0h94.975a5.077,5.077,0,0,1,3.711,1.566,5.081,5.081,0,0,1,1.567,3.711V15.831a5.35,5.35,0,0,1-5.278,5.276Zm-131,0a5.35,5.35,0,0,1-5.278-5.276V5.277a5.076,5.076,0,0,1,1.567-3.711A5.074,5.074,0,0,1,1214.49,0h94.976a5.08,5.08,0,0,1,3.711,1.566,5.08,5.08,0,0,1,1.566,3.711V15.831a5.348,5.348,0,0,1-5.277,5.276Zm-129,0a5.35,5.35,0,0,1-5.278-5.276V5.277a5.072,5.072,0,0,1,1.567-3.711A5.074,5.074,0,0,1,1085.49,0h94.975a5.077,5.077,0,0,1,3.711,1.566,5.077,5.077,0,0,1,1.567,3.711V15.831a5.35,5.35,0,0,1-5.278,5.276Zm-130,0a5.348,5.348,0,0,1-5.277-5.276V5.277a5.075,5.075,0,0,1,1.566-3.711A5.076,5.076,0,0,1,955.49,0h94.976a5.08,5.08,0,0,1,3.711,1.566,5.08,5.08,0,0,1,1.566,3.711V15.831a5.348,5.348,0,0,1-5.277,5.276Zm-129,0a5.35,5.35,0,0,1-5.278-5.276V5.277a5.076,5.076,0,0,1,1.567-3.711A5.074,5.074,0,0,1,826.49,0h94.975a5.077,5.077,0,0,1,3.711,1.566,5.077,5.077,0,0,1,1.567,3.711V15.831a5.35,5.35,0,0,1-5.278,5.276Zm-131,0a5.35,5.35,0,0,1-5.278-5.276V5.277a5.073,5.073,0,0,1,1.567-3.711A5.074,5.074,0,0,1,695.49,0h94.975a5.079,5.079,0,0,1,3.711,1.566,5.084,5.084,0,0,1,1.567,3.711V15.831a5.35,5.35,0,0,1-5.278,5.276Zm-129,0a5.35,5.35,0,0,1-5.278-5.276V5.277a5.076,5.076,0,0,1,1.567-3.711A5.074,5.074,0,0,1,566.49,0h94.976a5.08,5.08,0,0,1,3.711,1.566,5.08,5.08,0,0,1,1.566,3.711V15.831a5.348,5.348,0,0,1-5.277,5.276Zm-130,0a5.35,5.35,0,0,1-5.278-5.276V5.277a5.072,5.072,0,0,1,1.567-3.711A5.074,5.074,0,0,1,436.49,0h94.975a5.077,5.077,0,0,1,3.711,1.566,5.081,5.081,0,0,1,1.567,3.711V15.831a5.35,5.35,0,0,1-5.278,5.276Zm-129,0a5.35,5.35,0,0,1-5.277-5.276V5.277a5.073,5.073,0,0,1,1.567-3.711A5.072,5.072,0,0,1,307.49,0h94.976a5.08,5.08,0,0,1,3.711,1.566,5.08,5.08,0,0,1,1.566,3.711V15.831a5.348,5.348,0,0,1-5.277,5.276Zm-131,0a5.35,5.35,0,0,1-5.278-5.276V5.277a5.073,5.073,0,0,1,1.567-3.711A5.074,5.074,0,0,1,176.49,0h94.975a5.077,5.077,0,0,1,3.711,1.566,5.077,5.077,0,0,1,1.567,3.711V15.831a5.35,5.35,0,0,1-5.278,5.276Zm-129,0a5.35,5.35,0,0,1-5.278-5.276V5.277A5.073,5.073,0,0,1,43.78,1.566,5.073,5.073,0,0,1,47.49,0h94.975a5.079,5.079,0,0,1,3.711,1.566,5.085,5.085,0,0,1,1.567,3.711V15.831a5.35,5.35,0,0,1-5.278,5.276Z" transform="translate(0 0)"/>
</svg>
