<svg id="HipHop" xmlns="http://www.w3.org/2000/svg" width="1518.261" height="180.869" viewBox="0 0 1518.261 180.869">
  <defs>
    <style>
      .cls-1 {
        fill: #d81b60;
      }
    </style>
  </defs>
  <path id="HipHop-2" data-name="HipHop" class="cls-1" d="M1427.826,169.565V11.3a11.3,11.3,0,0,1,22.609,0V169.565a11.3,11.3,0,0,1-22.609,0Zm-170,0V11.3a11.3,11.3,0,0,1,22.609,0V169.565a11.3,11.3,0,0,1-22.609,0Zm-170,0V11.3a11.3,11.3,0,0,1,22.608,0V169.565a11.3,11.3,0,0,1-22.608,0Zm-170,0V11.3a11.3,11.3,0,0,1,22.609,0V169.565a11.3,11.3,0,0,1-22.609,0Zm-170,0V11.3a11.3,11.3,0,0,1,22.609,0V169.565a11.3,11.3,0,0,1-22.609,0Zm-170,0V11.3a11.3,11.3,0,0,1,22.609,0V169.565a11.3,11.3,0,0,1-22.609,0Zm-170,0V11.3a11.3,11.3,0,0,1,22.609,0V169.565a11.3,11.3,0,0,1-22.609,0Zm-170,0V11.3a11.3,11.3,0,0,1,22.609,0V169.565a11.3,11.3,0,0,1-22.609,0Zm-170,0V11.3a11.3,11.3,0,0,1,22.609,0V169.565a11.3,11.3,0,0,1-22.609,0ZM1461.74,141.3V39.565a11.3,11.3,0,0,1,22.608,0V141.3a11.3,11.3,0,0,1-22.608,0Zm-170,0V39.565a11.3,11.3,0,0,1,22.608,0V141.3a11.3,11.3,0,0,1-22.608,0Zm-170,0V39.565a11.3,11.3,0,0,1,22.609,0V141.3a11.3,11.3,0,0,1-22.609,0Zm-170,0V39.565a11.3,11.3,0,0,1,22.609,0V141.3a11.3,11.3,0,0,1-22.609,0Zm-170,0V39.565a11.3,11.3,0,0,1,22.609,0V141.3a11.3,11.3,0,0,1-22.609,0Zm-170,0V39.565a11.3,11.3,0,0,1,22.609,0V141.3a11.3,11.3,0,0,1-22.609,0Zm-170,0V39.565a11.3,11.3,0,0,1,22.609,0V141.3a11.3,11.3,0,0,1-22.609,0Zm-170,0V39.565a11.3,11.3,0,0,1,22.609,0V141.3a11.3,11.3,0,0,1-22.609,0Zm-170,0V39.565a11.3,11.3,0,0,1,22.609,0V141.3a11.3,11.3,0,0,1-22.609,0ZM1360,135.652V45.218a11.3,11.3,0,1,1,22.609,0v90.435a11.3,11.3,0,0,1-22.609,0Zm-170,0V45.218a11.3,11.3,0,1,1,22.609,0v90.435a11.3,11.3,0,0,1-22.609,0Zm-170,0V45.218a11.3,11.3,0,1,1,22.609,0v90.435a11.3,11.3,0,0,1-22.609,0Zm-170,0V45.218a11.3,11.3,0,1,1,22.609,0v90.435a11.3,11.3,0,0,1-22.609,0Zm-170,0V45.218a11.3,11.3,0,1,1,22.608,0v90.435a11.3,11.3,0,1,1-22.608,0Zm-170,0V45.218a11.3,11.3,0,1,1,22.608,0v90.435a11.3,11.3,0,0,1-22.608,0Zm-170,0V45.218a11.3,11.3,0,1,1,22.609,0v90.435a11.3,11.3,0,0,1-22.609,0Zm-170,0V45.218a11.3,11.3,0,1,1,22.609,0v90.435a11.3,11.3,0,0,1-22.609,0Zm-170,0V45.218a11.3,11.3,0,1,1,22.609,0v90.435a11.3,11.3,0,0,1-22.609,0Zm1495.652-22.609V67.826a11.3,11.3,0,0,1,22.608,0v45.218a11.3,11.3,0,0,1-22.608,0Zm-101.74,0V67.826a11.3,11.3,0,0,1,22.609,0v45.218a11.3,11.3,0,0,1-22.609,0Zm-68.26,0V67.826a11.3,11.3,0,0,1,22.609,0v45.218a11.3,11.3,0,0,1-22.609,0Zm-101.74,0V67.826a11.3,11.3,0,0,1,22.609,0v45.218a11.3,11.3,0,0,1-22.609,0Zm-68.26,0V67.826a11.3,11.3,0,0,1,22.609,0v45.218a11.3,11.3,0,0,1-22.609,0Zm-101.739,0V67.826a11.3,11.3,0,1,1,22.608,0v45.218a11.3,11.3,0,1,1-22.608,0Zm-68.261,0V67.826a11.3,11.3,0,0,1,22.609,0v45.218a11.3,11.3,0,0,1-22.609,0Zm-101.739,0V67.826a11.3,11.3,0,0,1,22.608,0v45.218a11.3,11.3,0,0,1-22.608,0Zm-68.261,0V67.826a11.3,11.3,0,0,1,22.609,0v45.218a11.3,11.3,0,0,1-22.609,0Zm-101.739,0V67.826a11.3,11.3,0,1,1,22.608,0v45.218a11.3,11.3,0,1,1-22.608,0Zm-68.261,0V67.826a11.3,11.3,0,0,1,22.609,0v45.218a11.3,11.3,0,0,1-22.609,0Zm-101.739,0V67.826a11.3,11.3,0,0,1,22.609,0v45.218a11.3,11.3,0,0,1-22.609,0Zm-68.261,0V67.826a11.3,11.3,0,0,1,22.609,0v45.218a11.3,11.3,0,0,1-22.609,0Zm-101.739,0V67.826a11.3,11.3,0,0,1,22.609,0v45.218a11.3,11.3,0,0,1-22.609,0Zm-68.26,0V67.826a11.3,11.3,0,0,1,22.608,0v45.218a11.3,11.3,0,1,1-22.608,0Zm-101.74,0V67.826a11.3,11.3,0,0,1,22.609,0v45.218a11.3,11.3,0,0,1-22.609,0Zm-68.261,0V67.826a11.3,11.3,0,0,1,22.608,0v45.218a11.3,11.3,0,1,1-22.608,0Zm-101.74,0V67.826a11.3,11.3,0,0,1,22.609,0v45.218a11.3,11.3,0,0,1-22.609,0Z"/>
</svg>
