<svg xmlns="http://www.w3.org/2000/svg" width="1559.4" height="118.245" viewBox="0 0 1559.4 118.245">
  <defs>
    <style>
      .cls-1 {
        fill: #00d79f;
      }
    </style>
  </defs>
  <g id="Indie" transform="translate(-0.002 -0.015)">
    <path id="Indie-2" data-name="Indie" class="cls-1" d="M1493.321,106.934c-4.833-4.422-7.986-7.129-13.641-7.129s-8.808,2.742-13.64,7.129-11.31,11.31-21.8,11.31-17-6.923-21.8-11.31c-4.546-4.159-7.6-6.8-12.658-7.1-5.079.3-8.321,2.973-12.867,7.1-4.833,4.387-11.31,11.31-21.8,11.31s-17-6.923-21.8-11.31c-4.832-4.422-7.986-7.129-13.64-7.129s-8.808,2.742-13.641,7.129-11.31,11.31-21.8,11.31-17-6.923-21.8-11.31c-4.546-4.159-7.6-6.8-12.659-7.1-5.078.3-8.32,2.973-12.867,7.1-4.832,4.387-11.31,11.31-21.8,11.31s-17-6.923-21.8-11.31c-4.833-4.422-7.987-7.129-13.641-7.129s-8.808,2.742-13.64,7.129-11.31,11.31-21.8,11.31-17-6.923-21.8-11.31c-4.545-4.159-7.6-6.8-12.658-7.1-5.079.3-8.32,2.973-12.867,7.1-4.833,4.387-11.31,11.31-21.8,11.31s-17-6.923-21.8-11.31c-4.833-4.422-7.986-7.129-13.64-7.129s-8.808,2.742-13.641,7.129-11.31,11.31-21.8,11.31-17-6.923-21.8-11.31c-4.546-4.159-7.6-6.8-12.659-7.1-5.078.3-8.32,2.973-12.867,7.1-4.832,4.387-11.31,11.31-21.8,11.31s-17-6.923-21.8-11.31c-4.833-4.422-7.987-7.129-13.641-7.129s-8.808,2.742-13.64,7.129-11.31,11.31-21.8,11.31-17-6.923-21.8-11.31c-4.545-4.159-7.6-6.8-12.658-7.1-5.079.3-8.32,2.973-12.868,7.1-4.832,4.387-11.31,11.31-21.8,11.31s-17-6.923-21.8-11.31c-4.833-4.422-7.986-7.129-13.64-7.129s-8.808,2.742-13.641,7.129-11.31,11.31-21.8,11.31-17-6.923-21.8-11.31c-4.546-4.159-7.605-6.8-12.659-7.1-5.078.3-8.32,2.973-12.867,7.1-4.833,4.387-11.31,11.31-21.8,11.31s-17-6.923-21.8-11.31c-4.833-4.422-7.987-7.129-13.641-7.129s-8.808,2.742-13.641,7.129-11.31,11.31-21.8,11.31-17-6.923-21.8-11.31c-4.545-4.159-7.6-6.8-12.659-7.1-5.077.3-8.32,2.973-12.867,7.1-4.832,4.387-11.31,11.31-21.8,11.31s-17-6.923-21.8-11.31c-4.833-4.422-7.986-7.129-13.64-7.129s-8.809,2.742-13.641,7.129-11.31,11.31-21.8,11.31-17-6.923-21.8-11.31c-4.546-4.159-7.6-6.8-12.658-7.1-5.079.3-8.321,2.973-12.867,7.1-4.833,4.387-11.31,11.31-21.8,11.31s-17-6.923-21.8-11.31c-4.833-4.422-7.987-7.129-13.641-7.129s-8.808,2.742-13.641,7.129-11.31,11.31-21.8,11.31-17-6.923-21.8-11.31c-4.545-4.159-7.605-6.8-12.659-7.1-5.077.3-8.32,2.973-12.867,7.1-4.832,4.387-11.31,11.31-21.8,11.31s-17-6.923-21.8-11.31c-4.833-4.422-7.986-7.129-13.641-7.129s-8.808,2.742-13.64,7.129-11.31,11.31-21.8,11.31-17-6.923-21.8-11.31c-4.545-4.159-7.605-6.8-12.657-7.1-5.02.3-8.274,2.929-12.869,7.1-.422.383-.848.778-1.3,1.194l-.005.005a50.118,50.118,0,0,1-8.413,6.682,23.024,23.024,0,0,1-24.236-.036,50.2,50.2,0,0,1-8.434-6.725l0,0c-.39-.363-.8-.748-1.207-1.117-4.975-4.553-8.061-7.129-13.64-7.129-5.787,0-9.081,2.99-13.641,7.129-.427.388-.869.8-1.3,1.193a50.149,50.149,0,0,1-8.418,6.687,23.026,23.026,0,0,1-24.237-.034,50.23,50.23,0,0,1-8.433-6.725l0,0c-.39-.364-.8-.749-1.208-1.118-4.976-4.553-8.063-7.129-13.641-7.129a8.642,8.642,0,0,1-5.959-2.567A8.586,8.586,0,0,1,.2,91.2a8.465,8.465,0,0,1,2.525-5.894A8.241,8.241,0,0,1,8.473,82.8c.111,0,.221,0,.329.008a30.054,30.054,0,0,1,8.153,1.125,32.93,32.93,0,0,1,6.868,2.838A51.6,51.6,0,0,1,33.96,94.356c5.089,4.691,7.955,6.923,10.488,6.923,2.507,0,5.059-2.11,10.282-6.923a51.484,51.484,0,0,1,10.149-7.588,33.08,33.08,0,0,1,6.869-2.838,30.071,30.071,0,0,1,23.069,2.838,56.849,56.849,0,0,1,10.227,7.588c5.09,4.691,7.957,6.923,10.489,6.923,2.507,0,5.059-2.11,10.282-6.923a51.484,51.484,0,0,1,10.149-7.588,33.06,33.06,0,0,1,6.869-2.838,30.057,30.057,0,0,1,3.2-.715,7.454,7.454,0,0,1,2.772-.41c.366,0,.731.006,1.091.02q.537-.02,1.076-.02c.1,0,.2-.007.3-.007a6.744,6.744,0,0,1,2.128.357c9.326,1.44,16.033,7.024,20.564,11.2,5.244,4.833,7.986,6.923,10.488,6.923s5.038-2.091,10.283-6.923,13.435-11.551,25.157-11.551,19.707,6.718,25.157,11.551c5.244,4.833,7.986,6.923,10.488,6.923s5.038-2.091,10.283-6.923c4.475-4.125,11.1-9.622,20.228-11.145a7.437,7.437,0,0,1,2.762-.406q.548,0,1.085.019.536-.019,1.082-.019a6.617,6.617,0,0,1,2.425.35c9.327,1.439,16.034,7.024,20.566,11.2,5.243,4.833,7.986,6.923,10.488,6.923s5.038-2.091,10.282-6.923,13.435-11.551,25.157-11.551,19.708,6.718,25.157,11.551c5.244,4.833,7.987,6.923,10.489,6.923s5.038-2.091,10.282-6.923c4.476-4.125,11.1-9.622,20.228-11.145a7.432,7.432,0,0,1,2.761-.406q.548,0,1.085.019c.357-.013.717-.019,1.082-.019a6.622,6.622,0,0,1,2.426.35c9.326,1.44,16.033,7.024,20.564,11.2,5.244,4.833,7.986,6.923,10.488,6.923s5.038-2.091,10.283-6.923,13.435-11.551,25.157-11.551,19.707,6.718,25.157,11.551c5.244,4.833,7.986,6.923,10.488,6.923s5.038-2.091,10.282-6.923c4.475-4.125,11.1-9.621,20.227-11.145a7.434,7.434,0,0,1,2.762-.406q.548,0,1.085.019.536-.019,1.082-.019a6.617,6.617,0,0,1,2.425.35c9.326,1.44,16.033,7.024,20.565,11.2,5.243,4.833,7.986,6.923,10.488,6.923s5.038-2.091,10.282-6.923,13.436-11.551,25.158-11.551,19.707,6.718,25.156,11.551c5.244,4.833,7.987,6.923,10.489,6.923s5.038-2.091,10.282-6.923c4.476-4.125,11.1-9.621,20.227-11.145a7.439,7.439,0,0,1,2.762-.406q.548,0,1.085.019.536-.019,1.082-.019a6.621,6.621,0,0,1,2.425.35c9.326,1.44,16.033,7.024,20.564,11.2,5.244,4.833,7.986,6.923,10.488,6.923s5.038-2.091,10.283-6.923,13.435-11.551,25.157-11.551,19.707,6.718,25.157,11.551c5.244,4.833,7.986,6.923,10.488,6.923s5.038-2.091,10.283-6.923c4.476-4.125,11.1-9.621,20.227-11.145a7.434,7.434,0,0,1,2.762-.406q.548,0,1.085.019.536-.019,1.082-.019a6.622,6.622,0,0,1,2.425.35c9.325,1.44,16.032,7.024,20.564,11.2,5.243,4.833,7.986,6.923,10.488,6.923s5.038-2.091,10.282-6.923,13.435-11.551,25.157-11.551,19.707,6.718,25.156,11.551c5.244,4.833,7.987,6.923,10.489,6.923s5.038-2.091,10.282-6.923c4.475-4.125,11.1-9.621,20.227-11.145a7.439,7.439,0,0,1,2.762-.406q.548,0,1.085.019.536-.019,1.082-.019a6.622,6.622,0,0,1,2.426.35c9.326,1.44,16.033,7.024,20.564,11.2,5.244,4.833,7.987,6.923,10.489,6.923s5.038-2.091,10.282-6.923,13.435-11.551,25.157-11.551,19.707,6.718,25.157,11.551c5.244,4.833,7.986,6.923,10.489,6.923s5.038-2.091,10.281-6.923c4.476-4.125,11.1-9.621,20.228-11.145a7.434,7.434,0,0,1,2.762-.406q.548,0,1.085.019.536-.019,1.082-.019a6.622,6.622,0,0,1,2.426.35c9.325,1.44,16.032,7.024,20.564,11.2,5.244,4.833,7.986,6.923,10.488,6.923s5.038-2.091,10.282-6.923,13.435-11.551,25.157-11.551,19.707,6.718,25.157,11.551c5.244,4.833,7.986,6.923,10.488,6.923s5.038-2.091,10.282-6.923c4.475-4.125,11.1-9.621,20.227-11.145a7.439,7.439,0,0,1,2.762-.406q.548,0,1.085.019.536-.019,1.082-.019a6.625,6.625,0,0,1,2.426.35c9.326,1.44,16.033,7.024,20.565,11.2,5.243,4.833,7.986,6.923,10.488,6.923s5.038-2.091,10.282-6.923,13.435-11.551,25.157-11.551,19.707,6.718,25.157,11.551c5.244,4.833,7.987,6.923,10.489,6.923s5.038-2.091,10.282-6.923c4.476-4.125,11.1-9.621,20.227-11.145a7.437,7.437,0,0,1,2.762-.406q.548,0,1.085.019.536-.019,1.082-.019a6.622,6.622,0,0,1,2.426.35c9.326,1.44,16.033,7.024,20.564,11.2,5.244,4.833,7.986,6.923,10.488,6.923s5.038-2.091,10.283-6.923,13.435-11.551,25.157-11.551,19.707,6.718,25.157,11.551c5.244,4.833,7.986,6.923,10.488,6.923s5.038-2.091,10.282-6.923,13.435-11.551,25.157-11.551c4.216-.206,8.4,4.01,8.4,8.4a9.063,9.063,0,0,1-8.6,8.6c-5.655,0-9.013,2.742-13.846,7.129s-11.31,11.31-21.8,11.31S1498.119,111.322,1493.321,106.934Zm21.833-30.23c-7.952,0-13.4-3.975-17.823-7.745-1.474-1.474-2.707-2.708-3.976-3.77-4.832-4.388-7.986-7.129-13.64-7.129-.823,0-1.474.205-2.091.205-.617.206-1.268.206-1.885.411s-1.062.411-1.679.617c-2.741,1.028-5.243,3.118-8.191,5.861-4.593,4.181-10.488,10.488-19.913,11.31h-1.885c-10.488,0-16.966-6.89-21.8-11.31-3.983-3.615-6.824-6.113-10.866-6.88q-.3.025-.609.025c-.823,0-1.473.206-2.091.206-.616.205-1.268.205-1.885.411s-1.062.41-1.679.617c-2.742,1.029-5.243,3.119-8.191,5.861-4.594,4.181-10.489,10.489-19.913,11.31h-1.885c-7.952,0-13.4-3.975-17.823-7.745-1.473-1.474-2.707-2.708-3.975-3.77-4.833-4.388-7.986-7.129-13.641-7.129-.823,0-1.473.205-2.091.205-.616.206-1.268.206-1.885.411s-1.063.411-1.679.617c-2.742,1.028-5.244,3.118-8.192,5.861-4.593,4.181-10.488,10.488-19.912,11.31h-1.885c-10.488,0-16.965-6.89-21.8-11.31-3.983-3.615-6.824-6.113-10.866-6.881q-.3.026-.608.025c-.823,0-1.474.206-2.091.206-.617.205-1.269.205-1.885.411s-1.062.41-1.679.617c-2.741,1.029-5.243,3.119-8.191,5.861-4.593,4.181-10.489,10.489-19.913,11.31h-1.885c-7.951,0-13.4-3.975-17.822-7.745-1.474-1.474-2.708-2.708-3.976-3.77-4.832-4.388-7.986-7.129-13.64-7.129-.823,0-1.474.205-2.091.205-.617.206-1.268.206-1.885.411s-1.062.411-1.679.617c-2.741,1.028-5.243,3.118-8.191,5.861-4.593,4.181-10.488,10.488-19.913,11.31h-1.885c-10.489,0-16.966-6.89-21.8-11.31-3.982-3.615-6.824-6.113-10.865-6.881q-.3.026-.608.025c-.823,0-1.473.206-2.091.206-.616.205-1.268.205-1.885.411s-1.063.41-1.679.617c-2.742,1.029-5.244,3.119-8.192,5.861-4.593,4.181-10.488,10.489-19.913,11.31h-1.885c-7.951,0-13.4-3.975-17.823-7.745-1.473-1.474-2.707-2.708-3.975-3.77-4.833-4.388-7.986-7.129-13.641-7.129-.823,0-1.473.205-2.091.205-.617.206-1.268.206-1.885.411s-1.063.411-1.679.617c-2.742,1.028-5.244,3.118-8.192,5.861-4.593,4.181-10.488,10.488-19.913,11.31h-1.885c-10.488,0-16.966-6.89-21.8-11.31-3.982-3.615-6.824-6.113-10.866-6.881q-.3.026-.608.025c-.823,0-1.474.206-2.091.206-.617.205-1.269.205-1.885.411s-1.062.41-1.679.617c-2.742,1.029-5.243,3.119-8.191,5.861-4.594,4.181-10.489,10.489-19.913,11.31h-1.885c-7.951,0-13.4-3.975-17.822-7.745-1.474-1.474-2.708-2.708-3.976-3.77-4.832-4.388-7.986-7.129-13.64-7.129-.823,0-1.474.205-2.091.205-.617.206-1.268.206-1.885.411s-1.062.411-1.679.617c-2.741,1.028-5.243,3.118-8.192,5.861-4.592,4.181-10.488,10.488-19.913,11.31H884.07c-10.488,0-16.965-6.89-21.8-11.31-3.982-3.615-6.824-6.113-10.865-6.881q-.3.026-.608.025c-.823,0-1.473.206-2.091.206-.617.205-1.268.205-1.885.411s-1.062.41-1.679.617c-2.742,1.029-5.244,3.119-8.192,5.861-4.593,4.181-10.488,10.489-19.913,11.31h-1.885c-7.951,0-13.4-3.975-17.823-7.745-1.473-1.474-2.707-2.708-3.975-3.77-4.833-4.388-7.986-7.129-13.641-7.129-.823,0-1.473.205-2.091.205-.617.206-1.268.206-1.885.411s-1.063.411-1.679.617c-2.742,1.028-5.244,3.118-8.192,5.861-4.593,4.181-10.488,10.488-19.913,11.31H744.07c-10.488,0-16.966-6.89-21.8-11.31-3.982-3.615-6.825-6.113-10.866-6.881-.2.017-.4.025-.608.025-.823,0-1.473.206-2.091.206-.616.205-1.268.205-1.885.411s-1.062.41-1.679.617c-2.742,1.029-5.243,3.119-8.191,5.861-4.594,4.181-10.489,10.489-19.913,11.31h-1.885c-7.951,0-13.4-3.975-17.822-7.745-1.474-1.474-2.708-2.708-3.976-3.77-4.832-4.388-7.986-7.129-13.64-7.129-.823,0-1.474.205-2.091.205-.617.206-1.269.206-1.885.411s-1.063.411-1.679.617c-2.742,1.028-5.244,3.118-8.192,5.861-4.593,4.181-10.488,10.488-19.912,11.31H604.07c-10.488,0-16.965-6.89-21.8-11.31-3.982-3.615-6.824-6.113-10.865-6.881q-.3.026-.608.025c-.823,0-1.474.206-2.091.206-.617.205-1.268.205-1.885.411s-1.062.41-1.679.617c-2.741,1.029-5.243,3.119-8.191,5.861-4.593,4.181-10.488,10.489-19.913,11.31h-1.885c-7.951,0-13.4-3.975-17.823-7.745-1.473-1.474-2.707-2.708-3.975-3.77-4.833-4.388-7.986-7.129-13.641-7.129-.823,0-1.474.205-2.091.205-.617.206-1.268.206-1.885.411s-1.062.411-1.679.617c-2.741,1.028-5.243,3.118-8.191,5.861-4.593,4.181-10.488,10.488-19.913,11.31h-1.885c-10.488,0-16.966-6.89-21.8-11.31-3.983-3.615-6.825-6.113-10.866-6.881-.2.017-.4.025-.608.025-.823,0-1.473.206-2.091.206-.617.205-1.268.205-1.885.411s-1.062.41-1.679.617c-2.742,1.029-5.243,3.119-8.191,5.861-4.594,4.181-10.489,10.489-19.913,11.31h-1.885c-7.951,0-13.4-3.975-17.822-7.745-1.474-1.474-2.708-2.708-3.976-3.77-4.833-4.388-7.986-7.129-13.641-7.129-.823,0-1.473.205-2.091.205-.617.206-1.268.206-1.885.411s-1.063.411-1.679.617c-2.742,1.028-5.244,3.118-8.192,5.861-4.593,4.181-10.488,10.488-19.912,11.31H324.07c-10.488,0-16.965-6.89-21.8-11.31-3.982-3.615-6.824-6.113-10.865-6.881q-.3.026-.608.025c-.823,0-1.474.206-2.091.206-.617.205-1.269.205-1.885.411s-1.062.41-1.679.617c-2.741,1.029-5.243,3.119-8.191,5.861-4.593,4.181-10.488,10.489-19.913,11.31h-1.885c-7.952,0-13.4-3.975-17.823-7.745-1.474-1.474-2.707-2.708-3.976-3.77-4.832-4.388-7.986-7.129-13.64-7.129-.823,0-1.474.205-2.091.205-.617.206-1.268.206-1.886.411s-1.062.411-1.679.617c-2.741,1.028-5.243,3.118-8.191,5.861-4.593,4.181-10.488,10.488-19.913,11.31h-1.885c-10.488,0-16.966-6.89-21.8-11.31-3.982-3.615-6.826-6.114-10.867-6.881q-.3.026-.607.025a7.612,7.612,0,0,0-1.2.114,6.171,6.171,0,0,1-.9.092,5.976,5.976,0,0,1-.94.205,5.922,5.922,0,0,0-.944.206c-.309.1-.58.208-.842.309s-.531.205-.838.308c-2.637.989-5.09,2.976-8.191,5.861-.436.4-.876.805-1.342,1.238a53.225,53.225,0,0,1-7.735,6.29A23.776,23.776,0,0,1,117.04,76.7h-1.885a22.266,22.266,0,0,1-10.235-2.459,38.624,38.624,0,0,1-7.588-5.287c-1.45-1.451-2.7-2.7-3.975-3.77C88.8,61.05,85.5,58.06,79.715,58.06a7.726,7.726,0,0,0-1.2.113,6.047,6.047,0,0,1-.9.092,5.922,5.922,0,0,1-.944.206,5.976,5.976,0,0,0-.94.205c-.31.1-.58.208-.842.31s-.529.205-.837.308c-2.639.989-5.091,2.975-8.192,5.861-.433.394-.872.8-1.337,1.234a53.243,53.243,0,0,1-7.739,6.293,23.779,23.779,0,0,1-10.837,3.784H44.07A23.154,23.154,0,0,1,31.926,73.01a50.185,50.185,0,0,1-8.442-6.735c-.42-.391-.817-.76-1.211-1.12-4.559-4.139-7.852-7.129-13.641-7.129-.109.005-.22.007-.329.007a8.239,8.239,0,0,1-5.748-2.51A8.465,8.465,0,0,1,.029,49.629a8.59,8.59,0,0,1,2.643-6.036,8.638,8.638,0,0,1,5.959-2.567,29.975,29.975,0,0,1,8.139,1.125,33.005,33.005,0,0,1,6.869,2.838,51.439,51.439,0,0,1,10.15,7.588c.957.8,1.822,1.563,2.584,2.236A32.427,32.427,0,0,0,40.1,57.82c.434.2.831.4,1.268.617A6.148,6.148,0,0,0,44.311,59.5a.735.735,0,0,0,.27-.076,1.349,1.349,0,0,1,.553-.129c2.2-.4,4.578-2.542,8.887-6.438l.538-.486a58.225,58.225,0,0,1,9.49-6.991A32.084,32.084,0,0,1,77.624,41.06h2.091a29.975,29.975,0,0,1,8.139,1.125,33.054,33.054,0,0,1,6.869,2.838,51.439,51.439,0,0,1,10.149,7.588,38.029,38.029,0,0,0,7.335,6.066,6.148,6.148,0,0,0,2.948,1.063.735.735,0,0,0,.27-.076,1.348,1.348,0,0,1,.553-.13c2.207-.4,4.582-2.543,8.893-6.442l.532-.481a58.268,58.268,0,0,1,9.49-6.992,32.991,32.991,0,0,1,10.633-3.943,7.969,7.969,0,0,1,3.108-.65c11.722,0,19.913,6.718,25.157,11.551a81.531,81.531,0,0,0,6.306,5.243c.446.206.857.411,1.268.617A6.187,6.187,0,0,0,184.31,59.5c.206,0,.411-.205.823-.205,2.3-.411,4.8-2.742,9.426-6.924,5.038-4.387,12.578-10.488,23.066-11.31h2.091c11.722,0,19.912,6.718,25.157,11.551a37.778,37.778,0,0,0,7.334,6.066,6.192,6.192,0,0,0,2.948,1.063c.206,0,.411-.206.823-.206,2.3-.411,4.8-2.741,9.426-6.923,4.552-3.965,11.147-9.327,20.112-10.931a7.985,7.985,0,0,1,3.118-.653c11.722,0,19.913,6.718,25.157,11.551a81.356,81.356,0,0,0,6.306,5.243c.445.206.857.411,1.268.617a6.184,6.184,0,0,0,2.948,1.062c.205,0,.411-.205.823-.205,2.3-.411,4.8-2.742,9.425-6.924,5.038-4.387,12.578-10.488,23.066-11.31h2.091c11.722,0,19.913,6.718,25.157,11.551a37.777,37.777,0,0,0,7.335,6.066,6.186,6.186,0,0,0,2.948,1.063c.205,0,.411-.206.823-.206,2.3-.411,4.8-2.741,9.425-6.923,4.552-3.965,11.147-9.327,20.112-10.931a7.986,7.986,0,0,1,3.118-.653c11.722,0,19.913,6.718,25.157,11.551a81.531,81.531,0,0,0,6.306,5.243c.445.206.857.411,1.268.617A6.187,6.187,0,0,0,464.31,59.5c.206,0,.411-.205.823-.205,2.3-.411,4.8-2.742,9.426-6.924,5.038-4.387,12.578-10.488,23.066-11.31h2.091c11.722,0,19.913,6.718,25.157,11.551a37.779,37.779,0,0,0,7.334,6.066,6.192,6.192,0,0,0,2.948,1.063c.206,0,.411-.206.823-.206,2.3-.411,4.8-2.741,9.426-6.923,4.552-3.965,11.147-9.327,20.112-10.931a7.986,7.986,0,0,1,3.118-.653c11.722,0,19.912,6.718,25.157,11.551a81.362,81.362,0,0,0,6.306,5.243c.446.206.857.411,1.268.617A6.183,6.183,0,0,0,604.31,59.5c.205,0,.411-.205.823-.205,2.3-.411,4.8-2.742,9.425-6.924,5.038-4.387,12.578-10.488,23.067-11.31h2.091c11.722,0,19.912,6.718,25.156,11.551a37.778,37.778,0,0,0,7.335,6.066,6.186,6.186,0,0,0,2.948,1.063c.205,0,.411-.206.823-.206,2.3-.411,4.8-2.741,9.425-6.923,4.552-3.965,11.147-9.327,20.113-10.931a7.981,7.981,0,0,1,3.117-.653c11.722,0,19.913,6.718,25.157,11.551a81.537,81.537,0,0,0,6.306,5.243c.445.206.857.411,1.268.617A6.186,6.186,0,0,0,744.31,59.5c.206,0,.411-.205.823-.205,2.3-.411,4.8-2.742,9.426-6.924,5.038-4.387,12.578-10.488,23.066-11.31h2.091c11.722,0,19.912,6.718,25.157,11.551a37.779,37.779,0,0,0,7.334,6.066,6.192,6.192,0,0,0,2.948,1.063c.206,0,.411-.206.823-.206,2.3-.411,4.8-2.741,9.426-6.923,4.552-3.965,11.147-9.327,20.112-10.931a7.985,7.985,0,0,1,3.118-.653c11.722,0,19.913,6.718,25.157,11.551a81.373,81.373,0,0,0,6.306,5.243c.445.206.857.411,1.268.617A6.184,6.184,0,0,0,884.31,59.5c.205,0,.411-.205.823-.205,2.3-.411,4.8-2.742,9.425-6.924,5.039-4.387,12.579-10.488,23.067-11.31h2.091c11.722,0,19.913,6.718,25.156,11.551a37.777,37.777,0,0,0,7.335,6.066,6.186,6.186,0,0,0,2.948,1.063c.205,0,.411-.206.823-.206,2.3-.411,4.8-2.741,9.425-6.923,4.553-3.965,11.147-9.327,20.112-10.931a7.973,7.973,0,0,1,3.118-.654c11.722,0,19.913,6.718,25.157,11.551a81.524,81.524,0,0,0,6.306,5.243c.445.206.858.411,1.268.617a6.19,6.19,0,0,0,2.948,1.062c.205,0,.41-.205.822-.205,2.3-.411,4.8-2.742,9.426-6.924,5.038-4.387,12.578-10.488,23.066-11.31h2.091c11.722,0,19.912,6.718,25.157,11.551a37.773,37.773,0,0,0,7.335,6.066,6.186,6.186,0,0,0,2.947,1.063c.205,0,.41-.206.822-.206,2.3-.411,4.8-2.741,9.426-6.923,4.552-3.965,11.147-9.327,20.112-10.931a7.985,7.985,0,0,1,3.118-.653c11.722,0,19.913,6.718,25.157,11.551a81.549,81.549,0,0,0,6.306,5.243c.446.206.857.411,1.268.617a6.187,6.187,0,0,0,2.948,1.062c.206,0,.411-.205.823-.205,2.3-.411,4.8-2.742,9.426-6.924,5.038-4.387,12.578-10.488,23.066-11.31h2.091c11.722,0,19.912,6.718,25.157,11.551a37.781,37.781,0,0,0,7.334,6.066,6.193,6.193,0,0,0,2.948,1.063c.206,0,.411-.206.823-.206,2.3-.411,4.8-2.741,9.426-6.923,4.552-3.965,11.147-9.327,20.111-10.931a7.973,7.973,0,0,1,3.118-.654c11.722,0,19.913,6.718,25.158,11.551a81.36,81.36,0,0,0,6.306,5.243c.445.206.857.411,1.268.617a6.183,6.183,0,0,0,2.948,1.062c.205,0,.411-.205.823-.205,2.3-.411,4.8-2.742,9.425-6.924,5.038-4.387,12.578-10.488,23.066-11.31h2.091c11.722,0,19.913,6.718,25.157,11.551a37.78,37.78,0,0,0,7.335,6.066,6.186,6.186,0,0,0,2.948,1.063c.205,0,.411-.206.823-.206,2.3-.411,4.8-2.741,9.425-6.923,4.552-3.964,11.147-9.326,20.113-10.931a7.975,7.975,0,0,1,3.117-.654c11.722,0,19.913,6.718,25.157,11.551a81.549,81.549,0,0,0,6.306,5.243c.446.206.857.411,1.268.617a6.186,6.186,0,0,0,2.948,1.062c.206,0,.411-.205.823-.205,2.3-.411,4.8-2.742,9.426-6.924,5.038-4.387,12.578-10.488,23.066-11.31h2.091c11.722,0,19.912,6.718,25.157,11.551a37.777,37.777,0,0,0,7.334,6.066,6.192,6.192,0,0,0,2.948,1.063c.206,0,.411-.206.823-.206,2.3-.411,4.8-2.741,9.426-6.923,5.038-4.388,12.578-10.488,23.066-11.31h2.091a9.157,9.157,0,0,1,8.843,8.6c0,4.422-4.182,8.4-8.6,8.4-.823,0-1.474.206-2.091.206-.617.205-1.269.205-1.885.411s-1.062.41-1.679.617c-2.741,1.029-5.243,3.119-8.191,5.861-4.593,4.181-10.488,10.489-19.913,11.31Zm-.068-41.505c-7.952,0-13.4-3.975-17.823-7.745-1.474-1.474-2.708-2.708-3.976-3.77-4.832-4.422-7.986-6.924-13.64-6.924-.823,0-1.474.206-2.091.206-4.627.617-7.574,3.153-11.756,6.923-4.593,4.181-10.488,10.488-19.913,11.31H1444c-10.488,0-16.965-6.889-21.8-11.31-4.811-4.4-7.958-6.9-13.565-6.923-4.627.617-7.573,3.153-11.755,6.923-4.593,4.181-10.488,10.488-19.913,11.31h-1.885c-7.951,0-13.4-3.975-17.822-7.745-1.474-1.474-2.708-2.708-3.976-3.77-4.833-4.422-7.986-6.924-13.641-6.924-.823,0-1.473.206-2.091.206-4.627.617-7.574,3.153-11.756,6.923-4.593,4.181-10.488,10.488-19.913,11.31H1304c-10.488,0-16.966-6.889-21.8-11.31-4.811-4.4-7.958-6.9-13.565-6.923-4.627.617-7.573,3.153-11.755,6.923-4.594,4.181-10.488,10.488-19.913,11.31h-1.885c-7.951,0-13.4-3.975-17.823-7.745-1.474-1.474-2.708-2.708-3.976-3.77-4.832-4.422-7.986-6.924-13.64-6.924-.823,0-1.474.206-2.091.206-4.627.617-7.575,3.153-11.757,6.923-4.593,4.181-10.488,10.488-19.912,11.31H1164c-10.488,0-16.965-6.889-21.8-11.31-4.81-4.4-7.958-6.9-13.565-6.923-4.627.617-7.573,3.153-11.755,6.923-4.593,4.181-10.488,10.488-19.912,11.31h-1.885c-7.952,0-13.4-3.975-17.823-7.745-1.473-1.474-2.707-2.708-3.975-3.77-4.833-4.422-7.986-6.924-13.641-6.924-.823,0-1.474.206-2.091.206-4.627.617-7.574,3.153-11.756,6.923-4.593,4.181-10.488,10.488-19.913,11.31H1024c-10.488,0-16.966-6.889-21.8-11.31-4.811-4.4-7.958-6.9-13.565-6.923-4.627.617-7.573,3.153-11.755,6.923C972.291,28.07,966.4,34.376,956.971,35.2h-1.885c-7.951,0-13.4-3.975-17.823-7.745-1.474-1.474-2.708-2.708-3.976-3.77-4.832-4.422-7.986-6.924-13.641-6.924-.822,0-1.473.206-2.091.206-4.627.617-7.574,3.153-11.756,6.923-4.593,4.181-10.488,10.488-19.912,11.31H884c-10.488,0-16.965-6.889-21.8-11.31-4.81-4.4-7.958-6.9-13.565-6.923-4.627.617-7.573,3.153-11.755,6.923C832.291,28.07,826.4,34.376,816.971,35.2h-1.885c-7.952,0-13.4-3.975-17.823-7.745-1.473-1.474-2.707-2.708-3.975-3.77-4.833-4.422-7.987-6.924-13.641-6.924-.823,0-1.474.206-2.091.206-4.627.617-7.574,3.153-11.756,6.923-4.593,4.181-10.488,10.488-19.913,11.31H744c-10.488,0-16.966-6.889-21.8-11.31-4.811-4.4-7.959-6.9-13.565-6.923-4.627.617-7.574,3.153-11.755,6.923C692.291,28.07,686.4,34.376,676.971,35.2h-1.885c-7.951,0-13.4-3.975-17.822-7.745-1.474-1.474-2.708-2.708-3.976-3.77-4.833-4.422-7.986-6.924-13.641-6.924-.823,0-1.473.206-2.091.206-4.627.617-7.574,3.153-11.756,6.923-4.593,4.181-10.488,10.488-19.913,11.31H604c-10.488,0-16.965-6.889-21.8-11.31-4.811-4.4-7.958-6.9-13.565-6.923-4.627.617-7.573,3.153-11.755,6.923C552.291,28.07,546.4,34.376,536.971,35.2h-1.885c-7.951,0-13.4-3.975-17.823-7.745-1.474-1.474-2.707-2.708-3.976-3.77-4.832-4.422-7.986-6.924-13.64-6.924-.823,0-1.474.206-2.091.206-4.627.617-7.574,3.153-11.756,6.923-4.593,4.181-10.488,10.488-19.913,11.31H464c-10.488,0-16.966-6.889-21.8-11.31-4.811-4.4-7.959-6.9-13.565-6.923-4.627.617-7.574,3.153-11.756,6.923C412.291,28.07,406.4,34.376,396.971,35.2h-1.885c-7.952,0-13.4-3.975-17.822-7.745-1.474-1.474-2.708-2.708-3.976-3.77-4.833-4.422-7.986-6.924-13.641-6.924-.823,0-1.473.206-2.091.206-4.627.617-7.574,3.153-11.756,6.923-4.593,4.181-10.488,10.488-19.913,11.31H324c-10.488,0-16.966-6.889-21.8-11.31-4.811-4.4-7.958-6.9-13.565-6.923-4.627.617-7.573,3.153-11.755,6.923C272.291,28.07,266.4,34.376,256.971,35.2h-1.885c-7.951,0-13.4-3.975-17.823-7.745-1.474-1.474-2.708-2.708-3.976-3.77-4.832-4.422-7.986-6.924-13.64-6.924-.823,0-1.474.206-2.091.206-4.627.617-7.574,3.153-11.756,6.923-4.593,4.181-10.488,10.488-19.913,11.31H184c-10.489,0-16.966-6.889-21.8-11.31-4.811-4.4-7.958-6.9-13.565-6.923-4.554.607-7.433,3.026-11.755,6.923-.4.364-.8.736-1.228,1.132l-.112.1a53.163,53.163,0,0,1-7.736,6.291A23.783,23.783,0,0,1,116.971,35.2h-1.886a22.269,22.269,0,0,1-10.235-2.459,38.659,38.659,0,0,1-7.587-5.287c-1.453-1.453-2.708-2.708-3.976-3.77C88.6,19.391,85.427,16.76,79.646,16.76a7.613,7.613,0,0,0-1.2.114l-.019,0a6.006,6.006,0,0,1-.877.089C73,17.573,70.122,19.992,65.8,23.889c-.4.363-.8.735-1.225,1.129l-.114.106a52.985,52.985,0,0,1-7.736,6.291A23.783,23.783,0,0,1,45.887,35.2H44a23.157,23.157,0,0,1-12.148-3.456,50.21,50.21,0,0,1-8.44-6.734l-.021-.02c-.412-.384-.8-.747-1.189-1.1-4.693-4.292-7.862-6.923-13.641-6.923-.114.005-.23.008-.346.008a8.654,8.654,0,0,1-6.171-2.742A6.99,6.99,0,0,1,.03,9.014,7.838,7.838,0,0,1,2.043,3.229,8.558,8.558,0,0,1,8.015.205h.823a30.879,30.879,0,0,1,8.139,1.088,33.277,33.277,0,0,1,6.869,2.755,49.227,49.227,0,0,1,10.149,7.468c.926.776,1.769,1.517,2.511,2.172l.071.062A32.447,32.447,0,0,0,40.3,16.76c.306.167.631.364.892.523a8.058,8.058,0,0,0,1.4.745,6.155,6.155,0,0,0,1.886.411.73.73,0,0,0,.27-.077,1.338,1.338,0,0,1,.553-.129c2.205-.4,4.577-2.541,8.885-6.436l.54-.488a52.664,52.664,0,0,1,9.49-7.069,35.039,35.039,0,0,1,6.257-2.773A31.464,31.464,0,0,1,77.8,0h2.091a30.893,30.893,0,0,1,8.139,1.087A33.211,33.211,0,0,1,94.9,3.843a49.268,49.268,0,0,1,10.149,7.467,38.241,38.241,0,0,0,3.564,3.154,18.237,18.237,0,0,0,4.833,3.564,6.138,6.138,0,0,0,1.885.411.729.729,0,0,0,.271-.077,1.337,1.337,0,0,1,.552-.129c2.2-.4,4.576-2.54,8.883-6.432l.005-.005.537-.486a52.612,52.612,0,0,1,9.49-7.069,35.039,35.039,0,0,1,6.257-2.773A31.476,31.476,0,0,1,148.64,0h2.091a4.725,4.725,0,0,1,1.679.205,3.851,3.851,0,0,1,1.345.3c.1.036.21.074.334.115q.1.031.189.067c8.866,1.585,15.325,6.785,19.715,10.832A81.53,81.53,0,0,0,180.3,16.76a20.511,20.511,0,0,0,2.3,1.268,6.2,6.2,0,0,0,1.885.411c.206,0,.411-.205.823-.205,2.3-.411,4.8-2.742,9.426-6.924C199.769,6.718,207.309.823,217.8,0h2.091c11.722,0,19.913,6.477,25.157,11.31a38.039,38.039,0,0,0,3.565,3.154,18.04,18.04,0,0,0,4.832,3.564,6.2,6.2,0,0,0,1.885.411c.205,0,.411-.205.823-.205,2.3-.411,4.8-2.742,9.425-6.924C270.612,6.718,278.152.823,288.64,0h2.092a4.717,4.717,0,0,1,1.678.205,5.03,5.03,0,0,1,1.679.411c.065.021.128.043.188.067,8.868,1.584,15.325,6.785,19.717,10.832A81.362,81.362,0,0,0,320.3,16.76a20.587,20.587,0,0,0,2.3,1.268,6.2,6.2,0,0,0,1.886.411c.205,0,.411-.205.823-.205,2.3-.411,4.8-2.742,9.425-6.924C339.769,6.718,347.309.823,357.8,0h2.091c11.722,0,19.913,6.477,25.157,11.31a38.039,38.039,0,0,0,3.564,3.154,18.056,18.056,0,0,0,4.833,3.564,6.2,6.2,0,0,0,1.885.411c.206,0,.411-.205.823-.205,2.3-.411,4.8-2.742,9.426-6.924C410.612,6.718,418.153.823,428.64,0h2.091a4.725,4.725,0,0,1,1.679.205,5.035,5.035,0,0,1,1.679.411q.1.031.189.067c8.867,1.585,15.325,6.785,19.715,10.832A81.51,81.51,0,0,0,460.3,16.76a20.585,20.585,0,0,0,2.3,1.268,6.2,6.2,0,0,0,1.885.411c.205,0,.411-.205.823-.205,2.3-.411,4.8-2.742,9.425-6.924C479.768,6.718,487.309.823,497.8,0h2.091c11.722,0,19.913,6.477,25.157,11.31a38.039,38.039,0,0,0,3.565,3.154,18.04,18.04,0,0,0,4.832,3.564,6.2,6.2,0,0,0,1.885.411c.205,0,.411-.205.823-.205,2.3-.411,4.8-2.742,9.425-6.924C550.612,6.718,558.152.823,568.64,0h2.092a4.725,4.725,0,0,1,1.679.205,5.04,5.04,0,0,1,1.679.411c.066.021.128.043.189.067,8.866,1.585,15.324,6.785,19.715,10.832A81.537,81.537,0,0,0,600.3,16.76a20.51,20.51,0,0,0,2.3,1.268,6.2,6.2,0,0,0,1.885.411c.206,0,.411-.205.823-.205,2.3-.411,4.8-2.742,9.426-6.924C619.769,6.718,627.309.823,637.8,0h2.091c11.722,0,19.913,6.477,25.157,11.31a38.039,38.039,0,0,0,3.564,3.154,18.055,18.055,0,0,0,4.833,3.564,6.2,6.2,0,0,0,1.885.411c.206,0,.411-.205.823-.205,2.3-.411,4.8-2.742,9.426-6.924C690.612,6.718,698.153.823,708.64,0h2.091a4.72,4.72,0,0,1,1.679.205,5.035,5.035,0,0,1,1.679.411q.1.031.189.067c8.867,1.585,15.325,6.785,19.716,10.832A81.36,81.36,0,0,0,740.3,16.76a20.582,20.582,0,0,0,2.3,1.268,6.2,6.2,0,0,0,1.885.411c.205,0,.411-.205.823-.205,2.3-.411,4.8-2.742,9.425-6.924C759.768,6.718,767.309.823,777.8,0h2.091c11.722,0,19.913,6.477,25.157,11.31a38.039,38.039,0,0,0,3.565,3.154,18.039,18.039,0,0,0,4.832,3.564,6.206,6.206,0,0,0,1.885.411c.205,0,.411-.205.823-.205,2.3-.411,4.8-2.742,9.425-6.924C830.613,6.718,838.153.823,848.641,0h2.091a4.724,4.724,0,0,1,1.679.205,5.041,5.041,0,0,1,1.679.411c.066.021.128.043.189.067,8.867,1.585,15.324,6.785,19.715,10.832A81.524,81.524,0,0,0,880.3,16.76a20.51,20.51,0,0,0,2.3,1.268,6.2,6.2,0,0,0,1.885.411c.206,0,.411-.205.823-.205,2.3-.411,4.8-2.742,9.426-6.924C899.769,6.718,907.309.823,917.8,0h2.091c11.722,0,19.912,6.477,25.157,11.31a38.155,38.155,0,0,0,3.564,3.154,18.057,18.057,0,0,0,4.833,3.564,6.2,6.2,0,0,0,1.885.411c.206,0,.412-.205.823-.205,2.3-.411,4.8-2.742,9.425-6.924C970.612,6.718,978.152.823,988.64,0h2.092a4.717,4.717,0,0,1,1.678.205,5.035,5.035,0,0,1,1.679.411c.065.021.128.043.188.067,8.868,1.584,15.325,6.785,19.717,10.832a81.362,81.362,0,0,0,6.306,5.243,20.593,20.593,0,0,0,2.3,1.268,6.2,6.2,0,0,0,1.886.411c.205,0,.411-.205.823-.205,2.3-.411,4.8-2.742,9.425-6.924C1039.768,6.718,1047.308.823,1057.8,0h2.091c11.722,0,19.913,6.477,25.157,11.31a38.163,38.163,0,0,0,3.565,3.154,18.041,18.041,0,0,0,4.833,3.564,6.2,6.2,0,0,0,1.885.411c.206,0,.411-.205.823-.205,2.3-.411,4.8-2.742,9.426-6.924C1110.613,6.718,1118.153.823,1128.641,0h2.091a4.725,4.725,0,0,1,1.679.205,5.041,5.041,0,0,1,1.679.411q.1.031.189.067c8.867,1.585,15.324,6.785,19.715,10.832a81.522,81.522,0,0,0,6.306,5.243,20.5,20.5,0,0,0,2.3,1.268,6.2,6.2,0,0,0,1.885.411c.206,0,.411-.205.823-.205,2.3-.411,4.8-2.742,9.426-6.924C1179.769,6.718,1187.309.823,1197.8,0h2.091c11.722,0,19.912,6.477,25.157,11.31a38.039,38.039,0,0,0,3.565,3.154,18.041,18.041,0,0,0,4.832,3.564,6.2,6.2,0,0,0,1.885.411c.205,0,.411-.205.823-.205,2.3-.411,4.8-2.742,9.425-6.924C1250.612,6.718,1258.152.823,1268.64,0h2.092a4.717,4.717,0,0,1,1.678.205,5.035,5.035,0,0,1,1.679.411c.065.021.128.043.188.067,8.868,1.584,15.325,6.785,19.717,10.832a81.338,81.338,0,0,0,6.306,5.243,20.593,20.593,0,0,0,2.3,1.268,6.2,6.2,0,0,0,1.885.411c.205,0,.411-.205.823-.205,2.3-.411,4.8-2.742,9.425-6.924C1319.768,6.718,1327.308.823,1337.8,0h2.091c11.721,0,19.913,6.477,25.157,11.31a38.039,38.039,0,0,0,3.564,3.154,18.056,18.056,0,0,0,4.833,3.564,6.2,6.2,0,0,0,1.885.411c.206,0,.411-.205.823-.205,2.3-.411,4.8-2.742,9.426-6.924C1390.613,6.718,1398.153.823,1408.64,0h2.091a4.725,4.725,0,0,1,1.679.205,5.041,5.041,0,0,1,1.679.411q.1.031.189.067c8.867,1.585,15.324,6.785,19.715,10.832a81.525,81.525,0,0,0,6.306,5.243,20.51,20.51,0,0,0,2.3,1.268,6.2,6.2,0,0,0,1.885.411c.206,0,.411-.205.823-.205,2.3-.411,4.8-2.742,9.426-6.924C1459.769,6.718,1467.309.823,1477.8,0h2.091c11.722,0,19.913,6.477,25.157,11.31a38.023,38.023,0,0,0,3.565,3.154,18.039,18.039,0,0,0,4.832,3.564,6.2,6.2,0,0,0,1.885.411c.205,0,.411-.205.823-.205,2.3-.411,4.8-2.742,9.425-6.924C1530.612,6.718,1538.152.823,1548.64,0h2.092a4.717,4.717,0,0,1,1.678.205,5.036,5.036,0,0,1,1.679.411,8.116,8.116,0,0,1,1.474.823,5.985,5.985,0,0,1,1.268,1.063,8.2,8.2,0,0,1,1.885,2.742,7.856,7.856,0,0,1,.616,3.153,8.592,8.592,0,0,1-3.976,6.924,5.32,5.32,0,0,1-1.473.823,7.846,7.846,0,0,1-3.154.616c-.823,0-1.474.206-2.091.206-4.627.617-7.574,3.153-11.756,6.923-4.593,4.181-10.488,10.488-19.913,11.31Z" transform="translate(0.001 0.015)"/>
  </g>
</svg>
