<svg xmlns="http://www.w3.org/2000/svg" width="1510.561" height="151.321" viewBox="0 0 1510.561 151.321">
  <g id="Jazz" transform="translate(-0.029 -0.977)">
    <path id="Jazz-2" data-name="Jazz" d="M1285.273,133.97a36.764,36.764,0,0,0-51.938,0,11.345,11.345,0,0,1-2.928,2.12,59.5,59.5,0,0,1-78.133-5.12,36.765,36.765,0,0,0-51.938,0,11.419,11.419,0,0,1-1.031.914,59.471,59.471,0,0,1-83.031-.914,36.764,36.764,0,0,0-51.937,0,11.352,11.352,0,0,1-2.929,2.12,59.5,59.5,0,0,1-78.134-5.119,36.765,36.765,0,0,0-51.938,0,11.472,11.472,0,0,1-1.3,1.122,11.675,11.675,0,0,1-.792.878,59.47,59.47,0,0,1-83.966,0,36.765,36.765,0,0,0-51.938,0,11.348,11.348,0,0,1-2.925,2.118,59.5,59.5,0,0,1-78.136-5.117,36.764,36.764,0,0,0-51.938,0,11.567,11.567,0,0,1-.946.847l-.15.153a59.47,59.47,0,0,1-83.966,0,36.765,36.765,0,0,0-51.938,0,11.348,11.348,0,0,1-2.925,2.118,59.5,59.5,0,0,1-78.136-5.117,36.764,36.764,0,0,0-51.938,0,11.466,11.466,0,0,1-1.3,1.122,11.462,11.462,0,0,1-.792.877,59.47,59.47,0,0,1-83.966,0,36.764,36.764,0,0,0-51.938,0,11.325,11.325,0,0,1-2.926,2.118,59.5,59.5,0,0,1-78.136-5.117,36.763,36.763,0,0,0-51.937,0A11.324,11.324,0,1,1,3.321,107.956a59.463,59.463,0,0,1,83.966,0,36.785,36.785,0,0,0,51.938,0,11.338,11.338,0,0,1,2.921-2.116,59.494,59.494,0,0,1,78.141,5.116,36.784,36.784,0,0,0,51.938,0,11.342,11.342,0,0,1,1.3-1.12,11.33,11.33,0,0,1,.793-.879,59.463,59.463,0,0,1,83.966,0,36.785,36.785,0,0,0,51.938,0,11.347,11.347,0,0,1,2.925-2.118,59.488,59.488,0,0,1,78.137,5.118,36.786,36.786,0,0,0,51.938,0,11.581,11.581,0,0,1,.94-.842l.156-.158a59.463,59.463,0,0,1,83.966,0,36.784,36.784,0,0,0,51.938,0,11.348,11.348,0,0,1,2.925-2.118,59.488,59.488,0,0,1,78.137,5.118,36.785,36.785,0,0,0,51.938,0,11.343,11.343,0,0,1,1.3-1.12,11.338,11.338,0,0,1,.793-.879,59.461,59.461,0,0,1,83.966,0,36.786,36.786,0,0,0,51.938,0,11.329,11.329,0,0,1,2.923-2.117,59.489,59.489,0,0,1,78.139,5.117,36.785,36.785,0,0,0,51.938,0,11.534,11.534,0,0,1,1.025-.91,59.467,59.467,0,0,1,83.037.91,36.785,36.785,0,0,0,51.938,0,11.327,11.327,0,0,1,2.922-2.116,59.492,59.492,0,0,1,78.14,5.116,36.785,36.785,0,0,0,51.938,0,11.343,11.343,0,0,1,1.3-1.12,11.338,11.338,0,0,1,.793-.879,59.461,59.461,0,0,1,83.966,0,36.785,36.785,0,0,0,51.938,0,11.323,11.323,0,0,1,16.014,16.014,59.466,59.466,0,0,1-83.965,0,36.766,36.766,0,0,0-51.938,0,11.451,11.451,0,0,1-1.3,1.121,11.336,11.336,0,0,1-.793.879,59.47,59.47,0,0,1-83.966,0Zm0-45.3a36.764,36.764,0,0,0-51.938,0,11.344,11.344,0,0,1-2.928,2.119,59.5,59.5,0,0,1-78.133-5.12,36.766,36.766,0,0,0-51.938,0,11.421,11.421,0,0,1-1.031.914,59.471,59.471,0,0,1-83.031-.914,36.765,36.765,0,0,0-51.937,0,11.352,11.352,0,0,1-2.929,2.119,59.5,59.5,0,0,1-78.134-5.119,36.765,36.765,0,0,0-51.938,0,11.472,11.472,0,0,1-1.3,1.122,11.674,11.674,0,0,1-.792.878,59.467,59.467,0,0,1-83.966,0,36.765,36.765,0,0,0-51.938,0,11.333,11.333,0,0,1-2.927,2.119,59.5,59.5,0,0,1-78.134-5.118,36.765,36.765,0,0,0-51.938,0,11.57,11.57,0,0,1-.946.847l-.15.153a59.47,59.47,0,0,1-83.966,0,36.765,36.765,0,0,0-51.938,0,11.348,11.348,0,0,1-2.925,2.118,59.5,59.5,0,0,1-78.136-5.117,36.764,36.764,0,0,0-51.938,0,11.466,11.466,0,0,1-1.3,1.122,11.462,11.462,0,0,1-.792.878,59.47,59.47,0,0,1-83.966,0,36.765,36.765,0,0,0-51.938,0,11.347,11.347,0,0,1-2.925,2.118,59.5,59.5,0,0,1-78.137-5.117,36.763,36.763,0,0,0-51.937,0A11.324,11.324,0,0,1,3.321,62.654a59.463,59.463,0,0,1,83.966,0,36.784,36.784,0,0,0,51.938,0,11.358,11.358,0,0,1,2.924-2.118,59.489,59.489,0,0,1,78.138,5.118,36.786,36.786,0,0,0,51.938,0,11.515,11.515,0,0,1,1.3-1.12,11.357,11.357,0,0,1,.794-.88,59.463,59.463,0,0,1,83.966,0,36.784,36.784,0,0,0,51.938,0,11.348,11.348,0,0,1,2.925-2.118,59.488,59.488,0,0,1,78.137,5.118,36.785,36.785,0,0,0,51.938,0,11.523,11.523,0,0,1,.943-.845l.152-.155a59.461,59.461,0,0,1,83.966,0,36.786,36.786,0,0,0,51.938,0,11.33,11.33,0,0,1,2.923-2.117,59.489,59.489,0,0,1,78.139,5.117,36.785,36.785,0,0,0,51.938,0,11.342,11.342,0,0,1,1.3-1.12,11.339,11.339,0,0,1,.793-.879,59.461,59.461,0,0,1,83.966,0,36.785,36.785,0,0,0,51.938,0,11.359,11.359,0,0,1,2.924-2.118,59.491,59.491,0,0,1,78.138,5.117,36.785,36.785,0,0,0,51.938,0,11.41,11.41,0,0,1,1.026-.91,59.468,59.468,0,0,1,83.036.91,36.785,36.785,0,0,0,51.938,0,11.327,11.327,0,0,1,2.922-2.116,59.492,59.492,0,0,1,78.14,5.116,36.784,36.784,0,0,0,51.938,0,11.343,11.343,0,0,1,1.3-1.121,11.338,11.338,0,0,1,.793-.879,59.463,59.463,0,0,1,83.966,0,36.785,36.785,0,0,0,51.938,0,11.324,11.324,0,0,1,16.014,16.015,59.468,59.468,0,0,1-83.965,0,36.764,36.764,0,0,0-51.938,0,11.478,11.478,0,0,1-1.3,1.122,11.47,11.47,0,0,1-.792.877,59.47,59.47,0,0,1-83.966,0Zm0-45.3a36.764,36.764,0,0,0-51.938,0,11.337,11.337,0,0,1-2.925,2.117,59.273,59.273,0,0,1-36.154,12.233,59.231,59.231,0,0,1-41.982-17.35,36.764,36.764,0,0,0-51.938,0,11.512,11.512,0,0,1-1.03.913,59.2,59.2,0,0,1-41.05,16.437,59.235,59.235,0,0,1-41.983-17.35,36.763,36.763,0,0,0-51.937,0,11.338,11.338,0,0,1-2.93,2.119,59.272,59.272,0,0,1-36.148,12.23,59.232,59.232,0,0,1-41.983-17.35,36.765,36.765,0,0,0-51.938,0,11.472,11.472,0,0,1-1.3,1.122,11.674,11.674,0,0,1-.792.877,59.2,59.2,0,0,1-41.983,17.351,59.236,59.236,0,0,1-41.983-17.351,36.766,36.766,0,0,0-51.938,0,11.333,11.333,0,0,1-2.927,2.119,59.277,59.277,0,0,1-36.152,12.232,59.231,59.231,0,0,1-41.982-17.35,36.765,36.765,0,0,0-51.938,0,11.569,11.569,0,0,1-.946.847l-.15.153a59.2,59.2,0,0,1-41.983,17.35,59.235,59.235,0,0,1-41.983-17.35,36.765,36.765,0,0,0-51.938,0,11.348,11.348,0,0,1-2.925,2.118,59.275,59.275,0,0,1-36.154,12.233,59.231,59.231,0,0,1-41.982-17.35,36.764,36.764,0,0,0-51.938,0,11.466,11.466,0,0,1-1.3,1.122,11.464,11.464,0,0,1-.792.878,59.2,59.2,0,0,1-41.983,17.35,59.235,59.235,0,0,1-41.983-17.35,36.765,36.765,0,0,0-51.938,0,11.348,11.348,0,0,1-2.925,2.118,59.275,59.275,0,0,1-36.154,12.233,59.235,59.235,0,0,1-41.983-17.35,36.763,36.763,0,0,0-51.937,0A11.324,11.324,0,1,1,3.321,17.353a59.462,59.462,0,0,1,83.966,0,36.784,36.784,0,0,0,51.938,0,11.341,11.341,0,0,1,2.933-2.122,59.485,59.485,0,0,1,78.129,5.123,36.785,36.785,0,0,0,51.938,0,11.343,11.343,0,0,1,1.3-1.121,11.332,11.332,0,0,1,.793-.879,59.461,59.461,0,0,1,83.966,0,36.786,36.786,0,0,0,51.938,0,11.318,11.318,0,0,1,2.932-2.121,59.486,59.486,0,0,1,78.13,5.121,36.785,36.785,0,0,0,51.938,0,11.5,11.5,0,0,1,.942-.844l.153-.156a59.462,59.462,0,0,1,83.966,0,36.785,36.785,0,0,0,51.938,0,11.357,11.357,0,0,1,2.93-2.12,59.483,59.483,0,0,1,78.132,5.12,36.785,36.785,0,0,0,51.938,0,11.342,11.342,0,0,1,1.3-1.121,11.338,11.338,0,0,1,.793-.879,59.462,59.462,0,0,1,83.966,0,36.785,36.785,0,0,0,51.938,0,11.357,11.357,0,0,1,2.93-2.12,59.483,59.483,0,0,1,78.132,5.12,36.785,36.785,0,0,0,51.938,0,11.616,11.616,0,0,1,1.028-.913,59.464,59.464,0,0,1,83.034.913,36.785,36.785,0,0,0,51.938,0,11.339,11.339,0,0,1,2.933-2.122,59.484,59.484,0,0,1,78.129,5.122,36.786,36.786,0,0,0,51.938,0,11.444,11.444,0,0,1,1.3-1.12,11.5,11.5,0,0,1,.794-.881,59.462,59.462,0,0,1,83.966,0,36.784,36.784,0,0,0,51.938,0,11.324,11.324,0,0,1,16.014,16.015,59.2,59.2,0,0,1-41.982,17.35,59.232,59.232,0,0,1-41.983-17.35,36.764,36.764,0,0,0-51.938,0,11.449,11.449,0,0,1-1.3,1.122,11.5,11.5,0,0,1-.792.878,59.2,59.2,0,0,1-41.983,17.35A59.235,59.235,0,0,1,1285.273,43.367Z" transform="translate(0.029 0.977)" fill="#fdd835"/>
  </g>
</svg>
