<?xml version="1.0" encoding="UTF-8" standalone="no"?>
<svg width="24px" height="16px" viewBox="0 0 24 16" version="1.1" xmlns="http://www.w3.org/2000/svg" xmlns:xlink="http://www.w3.org/1999/xlink">
    <!-- Generator: Sketch 39.1 (31720) - http://www.bohemiancoding.com/sketch -->
    <title>music_metal</title>
    <desc>Created with Sketch.</desc>
    <defs></defs>
    <g id="Icons" stroke="none" stroke-width="1" fill="none" fill-rule="evenodd">
        <g id="music_metal" class="whitey" transform="translate(-12.000000, -16.000000)" fill="#000000">
            <g transform="translate(12.000000, 16.000000)">
                <path d="M1.32453543,10.599874 C0.593385827,10.599874 0,11.1928819 0,11.9244094 L0,14.5734803 C0,15.3048189 0.593385827,15.8985827 1.32453543,15.8985827 C2.05568504,15.8985827 2.64907087,15.3048189 2.64907087,14.5734803 L2.64907087,11.9244094 C2.64907087,11.1928819 2.05549606,10.599874 1.32453543,10.599874 L1.32453543,10.599874 Z M6.62229921,7.95099213 C5.89114961,7.95099213 5.29795276,8.544 5.29795276,9.27533858 L5.29795276,14.5732913 C5.29795276,15.3046299 5.89133858,15.8976378 6.62229921,15.8976378 C7.35325984,15.8976378 7.94683465,15.3046299 7.94683465,14.5732913 L7.94683465,9.27533858 C7.94683465,8.544 7.35344882,7.95099213 6.62229921,7.95099213 L6.62229921,7.95099213 Z M11.920063,5.30211024 C11.1889134,5.30211024 10.5957165,5.89549606 10.5957165,6.62664567 L10.5957165,14.5734803 C10.5957165,15.3048189 11.1891024,15.8978268 11.920063,15.8978268 C12.6508346,15.8978268 13.2445984,15.3048189 13.2445984,14.5734803 L13.2445984,6.62645669 C13.2445984,5.89530709 12.6508346,5.30211024 11.920063,5.30211024 L11.920063,5.30211024 Z M17.2178268,2.65322835 C16.4872441,2.65322835 15.8934803,3.24661417 15.8934803,3.9775748 L15.8934803,14.5732913 C15.8934803,15.3046299 16.4872441,15.8983937 17.2178268,15.8983937 C17.9485984,15.8983937 18.5423622,15.3046299 18.5423622,14.5732913 L18.5423622,3.9775748 C18.5423622,3.2464252 17.9487874,2.65322835 17.2178268,2.65322835 L17.2178268,2.65322835 Z M22.5157795,0.00472440945 C21.7850079,0.00472440945 21.1912441,0.597543307 21.1912441,1.32850394 L21.1912441,14.5731024 C21.1912441,15.3044409 21.7850079,15.8982047 22.5157795,15.8982047 C23.2465512,15.8982047 23.840126,15.3044409 23.840126,14.5731024 L23.840126,1.32869291 C23.840126,0.597543307 23.2467402,0.00472440945 22.5157795,0.00472440945 L22.5157795,0.00472440945 Z"></path>
            </g>
        </g>
    </g>
</svg>