<?xml version="1.0" encoding="UTF-8" standalone="no"?>
<svg width="24px" height="23px" viewBox="0 0 24 23" version="1.1" xmlns="http://www.w3.org/2000/svg" xmlns:xlink="http://www.w3.org/1999/xlink">
    <!-- Generator: Sketch 39.1 (31720) - http://www.bohemiancoding.com/sketch -->
    <title>music_soul</title>
    <desc>Created with Sketch.</desc>
    <defs></defs>
    <g id="Icons" stroke="none" stroke-width="1" fill="none" fill-rule="evenodd">
        <g id="music_soul" transform="translate(-12.000000, -13.000000)" fill="#000000">
            <g transform="translate(12.000000, 13.000000)">
                <path d="M2.62894884,13.1687442 L2.62894884,7.91084651 C2.62894884,7.18493023 2.04055814,6.59631628 1.3144186,6.59631628 C0.588390698,6.59637209 0,7.18493023 0,7.91084651 L0,13.1687442 C0,13.8948279 0.588390698,14.4832744 1.3144186,14.4832744 C2.04055814,14.4832744 2.62894884,13.8948279 2.62894884,13.1687442 Z M6.86455814,18.646214 L6.86455814,3.31021395 C6.86455814,2.58429767 6.27627907,1.99568372 5.55013953,1.99568372 C4.824,1.99568372 4.23566512,2.58424186 4.23566512,3.31021395 L4.23566512,18.6462698 C4.23566512,19.3723535 4.82405581,19.9608 5.55019535,19.9608 C6.27633488,19.9608 6.86455814,19.3722977 6.86455814,18.646214 Z M11.1003349,16.3822884 L11.1003349,7.91084651 C11.1003349,7.18493023 10.5119442,6.59631628 9.78580465,6.59631628 C9.05966512,6.59631628 8.47138605,7.18487442 8.47138605,7.91084651 L8.47138605,16.3822326 C8.47138605,17.1082605 9.05966512,17.6967628 9.78580465,17.6967628 C10.5119442,17.6967628 11.1003349,17.1082605 11.1003349,16.3822884 Z M22.6384186,9.22571163 C21.9121674,9.22571163 21.3239442,9.81426977 21.3239442,10.5402419 L21.3239442,17.8435535 C21.3239442,18.5695814 21.9121674,19.1580837 22.6384186,19.1580837 C23.3645023,19.1580837 23.9529488,18.5695814 23.9529488,17.8435535 L23.9529488,10.5402419 C23.9529488,9.81426977 23.3645023,9.22571163 22.6384186,9.22571163 Z M18.4030326,0.0238883721 C17.6770047,0.0238883721 17.0887814,0.612446512 17.0887814,1.3384186 L17.0887814,21.2750512 C17.0887814,22.0013023 17.6770047,22.5895814 18.4030326,22.5895814 C19.1293395,22.5895814 19.7175628,22.0013023 19.7175628,21.2750512 L19.7175628,1.3384186 C19.717507,0.612502326 19.128893,0.0238883721 18.4030326,0.0238883721 Z M14.1673674,19.1580279 C14.8936744,19.1580279 15.4819535,18.5695256 15.4819535,17.8434977 L15.4819535,5.1727814 C15.4819535,4.44686512 14.8936744,3.85825116 14.1673674,3.85825116 C13.4413395,3.85825116 12.852893,4.4468093 12.852893,5.1727814 L12.852893,17.8434977 C12.852893,18.5695256 13.4413395,19.1580279 14.1673674,19.1580279 Z"></path>
            </g>
        </g>
    </g>
</svg>