<?xml version="1.0" encoding="UTF-8" standalone="no"?>
<svg width="24px" height="23px" viewBox="0 0 24 23" version="1.1" xmlns="http://www.w3.org/2000/svg" xmlns:xlink="http://www.w3.org/1999/xlink">
    <!-- Generator: Sketch 39.1 (31720) - http://www.bohemiancoding.com/sketch -->
    <title>navigation_home</title>
    <desc>Created with Sketch.</desc>
    <defs></defs>
    <g id="Icons" stroke="none" stroke-width="1" fill="none" fill-rule="evenodd">
        <g id="navigation_home" class="bcmb" transform="translate(-12.000000, -13.000000)" fill="#000000">
            <g transform="translate(12.000000, 13.000000)" id="home-icon">
                <path d="M20.0437877,11.0569559 C19.6540212,11.0569559 19.3520591,11.357467 19.3520591,11.7491159 L19.3520591,21.2042959 L14.4471742,21.2042959 L14.4471742,17.3433765 C14.4471742,16.9811787 14.1453296,16.6645499 13.780426,16.6645499 L10.2339394,16.6645499 C9.84382001,16.6645499 9.52962251,16.9811395 9.52962251,17.3433765 L9.52962251,21.2042959 L4.63705137,21.2042959 L4.63705137,12.0630781 C4.63705137,11.6981352 4.33548138,11.3949966 3.94536197,11.3949966 C3.58073287,11.3949966 3.27888836,11.6981352 3.27888836,12.0630781 L3.27888836,21.8965343 C3.27888836,22.2614379 3.58073287,22.5646157 3.94536197,22.5646157 L10.2339394,22.5646157 C10.5985685,22.5646157 10.900413,22.2614379 10.900413,21.8965343 L10.900413,18.0355757 L13.0886974,18.0355757 L13.0886974,21.8965343 C13.0886974,22.2614379 13.3905811,22.5646157 13.780426,22.5646157 L20.0437877,22.5646157 C20.408456,22.5646157 20.7103005,22.2614379 20.7103005,21.8965343 L20.7103005,11.7491943 C20.7103005,11.3575063 20.408456,11.0569559 20.0437877,11.0569559 Z M23.8041419,11.5962485 L18.3459212,6.11473353 L18.3459212,2.37722643 C18.3459212,1.98816585 18.0314492,1.6876939 17.6416435,1.6876939 C17.2767007,1.6876939 16.9748954,1.98820507 16.9748954,2.37722643 L16.9748954,4.74370772 L12.4724437,0.214667637 C12.3344822,0.0751375946 12.1705992,0 12.0071866,0 C11.8185976,0 11.6549498,0.0778042733 11.5167138,0.214667637 L0.210231353,11.5211109 C-0.0610247753,11.7920925 -0.0789856408,12.2267612 0.210231353,12.4762917 C0.46168347,12.7660577 0.894744252,12.7473125 1.16596116,12.4762917 L12.0071866,1.66083104 L22.8231963,12.5782529 C22.9358635,12.6909593 23.0998643,12.7553518 23.3137084,12.7553518 C23.5022974,12.7553518 23.6656707,12.6909593 23.8041419,12.5782529 C24.0558294,12.3260165 24.0745745,11.869936 23.8041419,11.5962485 Z"></path>
            </g>
        </g>
    </g>
</svg>