<?xml version="1.0" encoding="UTF-8" standalone="no"?>
<svg width="24px" height="24px" viewBox="0 0 24 24" version="1.1" xmlns="http://www.w3.org/2000/svg" xmlns:xlink="http://www.w3.org/1999/xlink">
    <!-- Generator: Sketch 39.1 (31720) - http://www.bohemiancoding.com/sketch -->
    <title>navigation_suche</title>
    <desc>Created with Sketch.</desc>
    <defs></defs>
    <g id="Icons" stroke="none" stroke-width="1" fill="none" fill-rule="evenodd">
        <g id="navigation_suche" class="search-icon" transform="translate(-12.000000, -12.000000)" fill="#000000">
            <g transform="translate(12.000000, 12.000000)" id="Shape">
                <path d="M15.6340645,2.67870968 C12.0627097,-0.892645161 6.25006452,-0.892645161 2.67870968,2.67870968 C-0.891870968,6.25083871 -0.891870968,12.0627097 2.67870968,15.6348387 C5.85909677,18.8144516 10.8123871,19.1550968 14.3814194,16.6722581 C14.4565161,17.0276129 14.6283871,17.3667097 14.9047742,17.6430968 L20.1058065,22.844129 C20.8637419,23.6005161 22.0885161,23.6005161 22.8425806,22.844129 C23.5997419,22.0869677 23.5997419,20.8621935 22.8425806,20.1073548 L17.6415484,14.9047742 C17.3667097,14.6307097 17.0268387,14.4580645 16.6714839,14.3829677 C19.155871,10.8131613 18.8152258,5.86064516 15.6340645,2.67870968 L15.6340645,2.67870968 Z M13.992,13.9927742 C11.3256774,16.6590968 6.98632258,16.6590968 4.32077419,13.9927742 C1.656,11.3264516 1.656,6.98787097 4.32077419,4.32154839 C6.98632258,1.656 11.3256774,1.656 13.992,4.32154839 C16.6583226,6.98787097 16.6583226,11.3264516 13.992,13.9927742 L13.992,13.9927742 Z"></path>
            </g>
        </g>
    </g>
</svg>