<?xml version="1.0" encoding="utf-8"?>
<!-- Generator: Adobe Illustrator 23.0.3, SVG Export Plug-In . SVG Version: 6.00 Build 0)  -->
<svg class="white-logo" version="1.1" id="Ebene_1" xmlns="http://www.w3.org/2000/svg" xmlns:xlink="http://www.w3.org/1999/xlink" x="0px" y="0px"
	 viewBox="0 0 598 130" style="enable-background:new 0 0 598 130;" xml:space="preserve">
<path id="Shape" d="M319.19,123.54L319.19,123.54L280.2,88.16c-7.67-6.84-13.08-15.86-15.49-25.85c-1.03-3.84-1.35-7.83-0.93-11.79
	c1.61-17.97,14.35-31.02,30.26-31.02c10.45,0.07,20.06,5.75,25.18,14.86c5.34-9.18,15.16-14.84,25.78-14.86
	c15.91,0,28.65,13.05,30.31,31.02c0.41,3.95,0.09,7.95-0.96,11.79c-2.41,9.99-7.82,19.02-15.49,25.86l-39.63,35.37L319.19,123.54z
	 M298,32.58c-11.88,0.01-21.51,9.64-21.53,21.52c0.06,1.19,1.06,2.11,2.25,2.05c1.11-0.05,2-0.94,2.05-2.05
	c0.02-9.5,7.72-17.2,17.22-17.21c1.19,0.06,2.2-0.86,2.25-2.05c0.06-1.19-0.86-2.2-2.05-2.25C298.13,32.58,298.07,32.58,298,32.58
	L298,32.58z"/>
<g>
	<path d="M69.44,39.53c-1.16,3.32-2.44,5.51-3.83,6.56c-1.4,1.05-3.89,1.61-7.47,1.66c-1.26,0-4.85-0.1-10.75-0.32
		c-1.32,2.43-2.56,5.32-3.71,8.65c-1.42,4.18-2.71,8.17-3.87,11.98h5.61c4,0,6.53-0.26,7.59-0.79c0.21-0.1,0.38-0.08,0.51,0.08
		c0.13,0.16,0.17,0.4,0.12,0.71c-0.74,3.53-2.4,5.37-4.98,5.53c-1.69,0.11-5.19,0.11-10.51,0c-1.05,3.58-2.5,8.98-4.35,16.2
		c-1,4.69-1.5,8.03-1.5,10.04c0,0.95,0.1,1.59,0.32,1.94c0.21,0.34,0.26,0.59,0.16,0.75c-0.11,0.26-0.42,0.34-0.95,0.24
		c-4.64-0.89-6.95-3.9-6.95-9.04c0-1.26,0.16-2.65,0.47-4.17c0.84-4.03,2.24-9.35,4.19-15.96c-2.85-0.05-4.85,0.16-6.01,0.63
		c-0.47,0.26-0.74,0.11-0.79-0.47c-0.11-0.84,0.1-1.9,0.63-3.16c0.42-1.05,0.76-1.69,1.03-1.9c0.37-0.42,1-0.63,1.9-0.63h4.74
		c1.63-5.22,3.06-9.69,4.27-13.44c0.68-2,1.49-3.45,2.41-4.35c0.92-0.9,2.62-1.84,5.1-2.85c-6.59-0.16-11.43-0.08-14.54,0.24
		c-7.54,0.79-11.35,3.56-11.46,8.3c-0.05,2.53,0.47,4.35,1.58,5.45c0.32,0.32,0.47,0.61,0.47,0.87c0,0.42-0.53,0.63-1.58,0.63
		c-1.79,0-3.35-0.63-4.66-1.9c-1.32-1.26-1.95-2.82-1.9-4.66c0.1-4.53,2.78-8.17,8.02-10.91c5.24-2.74,12.42-4.16,21.54-4.27
		c0.74,0,2.63,0.05,5.69,0.16c3.27,0.11,5.87,0.16,7.82,0.16c8.01,0,12.8-0.84,14.38-2.53c0.26-0.32,0.55-0.47,0.87-0.47
		c0.32,0,0.47,0.19,0.47,0.55C69.52,39.21,69.49,39.37,69.44,39.53z"/>
	<path d="M83.51,70.27c0,4.06-1.77,7.4-5.29,10.04c-3.32,2.53-7.27,3.79-11.85,3.79c-0.95,0-1.9-0.05-2.85-0.16
		c-0.16,0.95-0.24,1.87-0.24,2.77c0,4.16,1.66,6.35,4.98,6.56c4.43,0.26,8.98-1.82,13.67-6.24c0.16-0.16,0.29-0.24,0.4-0.24
		c0.26,0,0.37,0.53,0.32,1.58c-0.05,2.16-0.45,3.53-1.19,4.11c-4.27,3.58-9.3,5.37-15.09,5.37c-4,0-7.03-1-9.09-3
		c-2.21-2.16-3.14-5.27-2.77-9.33c0.47-5.58,2.98-10.51,7.51-14.78c4.37-4.06,8.96-6.09,13.75-6.09c2.85,0,4.85,0.43,6.01,1.3
		C82.93,66.83,83.51,68.27,83.51,70.27z M75.37,71.06c0-1.84-0.76-2.77-2.29-2.77c-1.79,0-3.48,1.16-5.06,3.48
		c-1.58,2.32-2.85,5.37-3.79,9.17c0.42,0.05,0.84,0.08,1.26,0.08c2.48,0,4.74-1.04,6.8-3.12C74.34,75.81,75.37,73.54,75.37,71.06z"
		/>
	<path d="M107.06,63.08c0.21,0.53,0,0.95-0.63,1.26c-1.16,0.58-2.03,1.61-2.61,3.08c-0.37,0.95-0.55,2-0.55,3.16
		c0,1.21,0.4,3.48,1.19,6.8c0.68,3.11,0.97,5.61,0.87,7.51c-0.21,3.64-2.19,6.77-5.93,9.4c-3.43,2.48-7.01,3.71-10.75,3.71
		c-2.42,0-3.64-1.08-3.64-3.24c0-0.53,0.08-1.08,0.24-1.66c0.26-1,0.63-1.29,1.11-0.87c1.32,1.11,2.61,1.66,3.87,1.66
		c4.48,0,6.72-2.74,6.72-8.22c0-4-0.5-7.64-1.5-10.91c-1.42,3.21-3.48,6.53-6.16,9.96c-3.06,3.85-6.32,6.95-9.8,9.33
		c-0.68,0.47-1.47,0.58-2.37,0.32c-1.21-0.32-1.82-0.68-1.82-1.11c0-0.16,0.24-0.42,0.71-0.79c6.8-5.37,12.78-12.99,17.94-22.84
		c1.21-2.37,2.66-4,4.35-4.9c2.69-1.47,5.08-2.4,7.19-2.77C106.16,61.87,106.69,62.23,107.06,63.08z"/>
	<path d="M136.3,80.46c-0.37,2.58-0.9,4.35-1.58,5.29c-2.53,3.32-5.37,6.14-8.54,8.46c-3.37,2.42-6.3,3.64-8.77,3.64
		c-4.32,0-6.48-2.4-6.48-7.19c0-1.42,0.18-3.03,0.55-4.82c0.95-4.43,2.24-9.25,3.87-14.46l-2.61-0.32c-0.9-0.1-1.34-0.32-1.34-0.63
		c0-0.26,0.1-0.66,0.32-1.19l0.79-1.9c0.37-0.9,1.13-1.34,2.29-1.34h2.37c0.26-0.79,0.53-1.55,0.79-2.29
		c1.21-3.06,2.48-5.06,3.79-6.01c1.32-0.95,3.69-1.45,7.11-1.5c0.32,0,0.53,0.11,0.63,0.32c0.16,0.21,0.1,0.42-0.16,0.63
		c-1.32,1.16-2.71,4.08-4.19,8.77l7.82,0.08c0.32,0,0.47,0.11,0.47,0.32c0,0.26-0.29,0.95-0.87,2.05c-0.58,1.11-1.32,1.71-2.21,1.82
		l-6.8,0.63c-1.58,4.95-2.87,9.59-3.87,13.91c-0.37,1.58-0.55,2.9-0.55,3.95c0,2,0.66,3,1.98,3c3.06,0,7.8-4,14.23-12.01
		c0.37-0.47,0.63-0.71,0.79-0.71C136.41,78.96,136.46,79.46,136.3,80.46z"/>
	<path d="M155.11,83.7c-0.26,2-0.69,3.43-1.26,4.27c-1.84,2.64-4.43,4.95-7.75,6.95c-3.06,1.9-5.61,2.87-7.67,2.92
		c-4.27,0.05-6.4-2.05-6.4-6.32c0-1.16,0.18-2.42,0.55-3.79c1.32-3.95,2.9-8.96,4.74-15.02c0.32-1.21,0.47-2.29,0.47-3.24
		c0-1.53-0.45-2.71-1.34-3.56c2.32-0.84,4.35-1.26,6.09-1.26c2.84,0,4.27,1.24,4.27,3.71c0,0.74-0.13,1.58-0.4,2.53
		c-0.32,1.16-1.34,4.29-3.08,9.4c-1.32,3.95-2.13,6.88-2.45,8.77c-0.26,1.69,0.24,2.53,1.5,2.53c1.32,0,3.45-1.32,6.4-3.95
		c2.26-2.06,4.08-3.92,5.45-5.61c0.53-0.63,0.84-0.84,0.95-0.63C155.29,81.62,155.27,82.39,155.11,83.7z M151.95,51.06
		c0,1.58-0.83,2.9-2.49,3.95c-1.66,1.05-3.33,1.58-5.02,1.58c-1.21,0-2.24-0.29-3.08-0.87c-1-0.63-1.5-1.53-1.5-2.69
		c0-1.63,0.87-3,2.61-4.11c1.53-0.95,3.13-1.42,4.82-1.42c1.21,0,2.29,0.3,3.24,0.91C151.48,49.02,151.95,49.91,151.95,51.06z"/>
	<path d="M184.83,66.71c0,3.48-1.48,7.61-4.43,12.41c-3.37,5.43-8.22,11.01-14.54,16.75c-1.42,1.32-3,1.98-4.74,1.98
		c-1.16,0-2.5-0.29-4.03-0.87c0.16-2.79,0.1-6.59-0.16-11.38c-0.26-4.79-0.58-8.4-0.95-10.83c-0.74-4.43-1.9-7.16-3.48-8.22
		c2.95-1.21,5.19-1.84,6.72-1.9c2.48-0.1,3.98,1.26,4.5,4.11c0.79,4.22,1.19,9.12,1.19,14.7c0,2.85-0.13,5.51-0.4,7.98
		c8.69-9.48,13.04-17.23,13.04-23.24c0-1.84-0.42-3.4-1.26-4.66c-0.37-0.58-0.19-0.95,0.55-1.11c1.16-0.21,2.19-0.32,3.08-0.32
		C183.19,62.13,184.83,63.66,184.83,66.71z"/>
	<path d="M229.4,81.25c-0.05,1.95-0.4,3.32-1.03,4.11c-6.32,8.33-12.01,12.49-17.07,12.49c-4.37,0-6.43-2.95-6.16-8.85
		c-5.06,6.53-10.12,9.48-15.17,8.85c-2.11-0.26-3.69-1.29-4.74-3.08c-0.9-1.53-1.29-3.32-1.19-5.37c0.32-6.01,2.66-11.55,7.03-16.64
		c4.37-5.08,9.14-7.78,14.3-8.1c2.79-0.16,4.95,0.4,6.48,1.66c1.05-1.11,2.45-1.66,4.19-1.66c1.79,0,3.5,0.55,5.14,1.66
		c-1.26,1.11-2.9,4.79-4.9,11.06c-1.9,6.06-2.85,10.14-2.85,12.25c0,1.48,0.58,2.13,1.74,1.98c1.32-0.21,3.41-1.57,6.28-4.07
		c2.87-2.5,5.36-5.2,7.47-8.1c0.1-0.1,0.18-0.18,0.24-0.24C229.37,79.2,229.45,79.88,229.4,81.25z M209.64,70.74
		c0-1.9-1.37-2.69-4.11-2.37c-2.42,0.26-4.95,2.28-7.59,6.05c-2.64,3.77-4.29,7.86-4.98,12.29c-0.11,0.84-0.16,1.58-0.16,2.21
		c0,2.64,0.9,3.87,2.69,3.71c2.37-0.16,5.37-3.29,9.01-9.4C207.93,77.43,209.64,73.27,209.64,70.74z"/>
	<path d="M247.97,80.86c-0.05,1.79-0.42,3.16-1.11,4.11c-2.85,3.95-5.88,7.14-9.09,9.56c-2.95,2.21-5.43,3.32-7.43,3.32
		c-3.48,0-5.22-2.21-5.22-6.64c0-1.58,0.18-3.5,0.55-5.77c1.74-10.54,4.93-21.55,9.56-33.04c1-2.53,2.17-4.16,3.52-4.9
		c1.34-0.74,3.94-1.13,7.78-1.19c0.42,0,0.66,0.13,0.71,0.4c0.05,0.26-0.11,0.55-0.47,0.87c-1.32,1.21-2.61,3.4-3.87,6.56
		c-3.9,9.64-7.17,20.76-9.8,33.35c-0.16,0.69-0.24,1.26-0.24,1.74c0,1.37,0.5,2.05,1.5,2.05c0.68,0,1.55-0.37,2.61-1.11
		c2.69-1.79,6.11-5.43,10.27-10.91c0.26-0.32,0.45-0.47,0.55-0.47h0.08C248,78.91,248.02,79.59,247.97,80.86z"/>
	<path d="M443.01,48.46c0.16,6.11-2.77,11.54-8.77,16.28c-5.48,4.32-11.91,6.98-19.28,7.98c-1.79,4.37-3.5,7.8-5.14,10.27
		c-2.27,3.37-5.01,6.03-8.22,7.98c7.38,0.26,12.57,0.37,15.57,0.32c9.22-0.21,14.38-1.34,15.49-3.4c0.26-0.47,0.58-0.71,0.95-0.71
		c0.37,0,0.5,0.37,0.4,1.11c-0.74,4.06-2.25,6.92-4.54,8.57c-2.29,1.66-5.55,2.49-9.76,2.49c-3.32,0-7.46-0.66-12.41-1.98
		c-5.95-1.58-9.69-2.48-11.22-2.69c-4.32,2.53-7.85,3.79-10.59,3.79c-3.95,0-5.93-1.11-5.93-3.33c0-1.5,1.12-2.69,3.36-3.57
		c2.24-0.88,5.39-1.32,9.44-1.32c1.26,0,2.58,0,3.95,0c1.69-0.9,3.13-2.4,4.35-4.5c1.47-2.58,3.19-6.93,5.14-13.04
		c-4.95-0.68-8.98-2.32-12.09-4.9c-3.53-3-5.29-6.9-5.29-11.7c0-3.64,1.29-6.9,3.87-9.8c2.42-2.69,5.27-4.29,8.54-4.82
		c0.74-0.1,1.11,0.05,1.11,0.47c0,0.26-0.21,0.53-0.63,0.79c-3.27,2.11-4.9,5.64-4.9,10.59c0,3.53,0.92,6.59,2.77,9.17
		c2,2.74,4.74,4.43,8.22,5.06c2.53-8.11,5.98-14.46,10.35-19.05c4.74-5,10.22-7.56,16.44-7.67c2.53-0.05,4.62,0.61,6.28,1.98
		C442.11,44.22,442.96,46.08,443.01,48.46z M433.45,44.74c-2.79,0-5.82,2.5-9.09,7.51c-2.53,4.06-4.98,9.22-7.35,15.49
		c5.16-0.79,9.85-3.48,14.07-8.06c3.85-4.21,5.77-8.01,5.77-11.38C436.85,45.93,435.72,44.74,433.45,44.74z"/>
	<path d="M470.28,74.38c0,6.11-2.08,11.51-6.24,16.2c-4.27,4.85-9.43,7.27-15.49,7.27c-3.42,0-6.13-0.99-8.1-2.96
		c-1.98-1.98-2.96-4.67-2.96-8.1c0-6.16,2.17-11.39,6.52-15.69c4.35-4.29,9.65-6.44,15.92-6.44
		C466.83,64.66,470.28,67.9,470.28,74.38z M461.35,75.07c0-4.31-1.34-6.46-4.03-6.46c-3.06,0-5.74,2.5-8.06,7.48
		c-1.95,4.26-2.92,8.12-2.92,11.58c0,4.15,1.37,6.22,4.11,6.22c3.11,0,5.79-2.44,8.06-7.33C460.4,82.48,461.35,78.64,461.35,75.07z"
		/>
	<path d="M505.84,66.71c0,3.48-1.48,7.61-4.42,12.41c-3.37,5.43-8.22,11.01-14.54,16.75c-1.42,1.32-3,1.98-4.74,1.98
		c-1.16,0-2.5-0.29-4.03-0.87c0.16-2.79,0.1-6.59-0.16-11.38c-0.26-4.79-0.58-8.4-0.95-10.83c-0.74-4.43-1.9-7.16-3.48-8.22
		c2.95-1.21,5.19-1.84,6.72-1.9c2.48-0.1,3.98,1.26,4.51,4.11c0.79,4.22,1.19,9.12,1.19,14.7c0,2.85-0.13,5.51-0.4,7.98
		c8.69-9.48,13.04-17.23,13.04-23.24c0-1.84-0.42-3.4-1.26-4.66c-0.37-0.58-0.18-0.95,0.55-1.11c1.16-0.21,2.19-0.32,3.08-0.32
		C504.21,62.13,505.84,63.66,505.84,66.71z"/>
	<path d="M534.92,70.27c0,4.06-1.77,7.4-5.29,10.04c-3.32,2.53-7.27,3.79-11.85,3.79c-0.95,0-1.9-0.05-2.85-0.16
		c-0.16,0.95-0.24,1.87-0.24,2.77c0,4.16,1.66,6.35,4.98,6.56c4.43,0.26,8.98-1.82,13.67-6.24c0.16-0.16,0.29-0.24,0.4-0.24
		c0.26,0,0.37,0.53,0.32,1.58c-0.05,2.16-0.45,3.53-1.19,4.11c-4.27,3.58-9.3,5.37-15.09,5.37c-4,0-7.03-1-9.09-3
		c-2.21-2.16-3.14-5.27-2.77-9.33c0.47-5.58,2.98-10.51,7.51-14.78c4.37-4.06,8.96-6.09,13.75-6.09c2.85,0,4.85,0.43,6.01,1.3
		C534.34,66.83,534.92,68.27,534.92,70.27z M526.79,71.06c0-1.84-0.76-2.77-2.29-2.77c-1.79,0-3.48,1.16-5.06,3.48
		c-1.58,2.32-2.85,5.37-3.79,9.17c0.42,0.05,0.84,0.08,1.26,0.08c2.48,0,4.74-1.04,6.8-3.12C525.76,75.81,526.79,73.54,526.79,71.06
		z"/>
	<path d="M560.45,75.48c-0.37-1-1.26-1.5-2.69-1.5c-2.79,0.05-5.64,2.62-8.54,7.69c-2.05,3.65-3.77,8.01-5.14,13.08
		c-0.53,2.06-2.05,3.09-4.58,3.09c-1.26,0-2.77-0.26-4.5-0.79c3.11-9.85,5.06-17.54,5.85-23.08c0.42-2.9,0.08-5.16-1.03-6.8
		c3.21-1.63,5.66-2.48,7.35-2.53c1.16-0.05,1.95,0.25,2.37,0.91c0.42,0.66,0.55,1.65,0.39,2.96c-0.42,3.74-1.37,7.43-2.84,11.06
		c5.53-9.64,10.17-14.62,13.91-14.94c2.27-0.16,3.4,0.74,3.4,2.71C564.4,70.12,563.08,72.83,560.45,75.48z"/>
	<path d="M585.74,63.08c0.21,0.53,0,0.95-0.63,1.26c-1.16,0.58-2.03,1.61-2.61,3.08c-0.37,0.95-0.55,2-0.55,3.16
		c0,1.21,0.4,3.48,1.19,6.8c0.68,3.11,0.97,5.61,0.87,7.51c-0.21,3.64-2.19,6.77-5.93,9.4c-3.42,2.48-7.01,3.71-10.75,3.71
		c-2.42,0-3.64-1.08-3.64-3.24c0-0.53,0.08-1.08,0.24-1.66c0.26-1,0.63-1.29,1.11-0.87c1.32,1.11,2.61,1.66,3.87,1.66
		c4.48,0,6.72-2.74,6.72-8.22c0-4-0.5-7.64-1.5-10.91c-1.42,3.21-3.48,6.53-6.16,9.96c-3.06,3.85-6.32,6.95-9.8,9.33
		c-0.68,0.47-1.47,0.58-2.37,0.32c-1.21-0.32-1.82-0.68-1.82-1.11c0-0.16,0.24-0.42,0.71-0.79c6.8-5.37,12.78-12.99,17.94-22.84
		c1.21-2.37,2.66-4,4.35-4.9c2.69-1.47,5.08-2.4,7.19-2.77C584.84,61.87,585.37,62.23,585.74,63.08z"/>
</g>
</svg>
