<?xml version="1.0" encoding="utf-8"?>
<!-- Generator: Adobe Illustrator 23.0.3, SVG Export Plug-In . SVG Version: 6.00 Build 0)  -->
<svg version="1.1" id="Ebene_1" xmlns="http://www.w3.org/2000/svg" xmlns:xlink="http://www.w3.org/1999/xlink" x="0px" y="0px"
	 viewBox="0 0 24 22" style="enable-background:new 0 0 24 22;" xml:space="preserve">
<style type="text/css">
	.st0{fill-rule:evenodd;clip-rule:evenodd;fill:#C2C2C2;}
</style>
<title>navigation_ticketkauf</title>
<desc>Created with Sketch.</desc>
<g id="Icons">
	<g id="navigation_ticketkauf" transform="translate(-12.000000, -13.000000)">
		<g id="Shape" transform="translate(12.000000, 13.000000)">
			<path class="st0" d="M23.8,8.4l-1.2-1.6c0,0,0,0,0,0c-1.3,0.9-3.1,0.6-4-0.7c-0.9-1.3-0.6-3.1,0.7-4c0,0,0,0,0,0l-1.2-1.6
				C17.9,0,17.4-0.1,17,0.2l-4.6,3.2l1,1.4l-1.1,0.8l-1-1.4l-11,7.7c-0.4,0.3-0.5,0.8-0.2,1.2l5.6,8c0.3,0.4,0.8,0.5,1.2,0.2l11-7.7
				l-1-1.4l1.1-0.8l1,1.4l4.6-3.2C24,9.4,24.1,8.8,23.8,8.4L23.8,8.4z M13.1,6.6l1.1-0.8l1.3,1.8l-1.1,0.8L13.1,6.6L13.1,6.6z
				 M16.3,11.2l-1.2-1.7l1.1-0.8l1.2,1.7L16.3,11.2L16.3,11.2z"/>
		</g>
	</g>
</g>
</svg>
