<svg xmlns="http://www.w3.org/2000/svg" xmlns:xlink="http://www.w3.org/1999/xlink" width="144.985" height="28.037" viewBox="0 0 144.985 28.037">
  <defs>
    <linearGradient id="linear-gradient" x1="0.192" y1="-0.352" x2="0.693" y2="0.935" gradientUnits="objectBoundingBox">
      <stop offset="0" stop-color="#19a3b4"/>
      <stop offset="0.348" stop-color="#5bc3af"/>
      <stop offset="0.922" stop-color="#c8f7a6"/>
      <stop offset="1" stop-color="#d7fea5"/>
    </linearGradient>
    <linearGradient id="linear-gradient-2" x1="0.282" y1="-0.148" x2="0.482" y2="0.829" gradientUnits="objectBoundingBox">
      <stop offset="0" stop-color="#0e4da0"/>
      <stop offset="1" stop-color="#6bfed4"/>
    </linearGradient>
    <linearGradient id="linear-gradient-3" x1="1.322" y1="0.165" x2="0.06" y2="1.263" gradientUnits="objectBoundingBox">
      <stop offset="0" stop-color="#fc472e"/>
      <stop offset="0.003" stop-color="#fc472f"/>
      <stop offset="1" stop-color="#893cd8"/>
    </linearGradient>
    <clipPath id="clip-path">
      <path id="Fill_1" data-name="Fill 1" d="M18.411,9.615,1.3.266A1.685,1.685,0,0,0,0,.054L14.02,13.979l4.392-4.364" transform="translate(1.834 0.022)" fill="url(#linear-gradient)"/>
    </clipPath>
    <linearGradient id="linear-gradient-5" x1="-0.147" y1="-1.143" x2="0.748" y2="1.142" gradientUnits="objectBoundingBox">
      <stop offset="0" stop-color="#fc227c"/>
      <stop offset="1" stop-color="#feeb7b"/>
    </linearGradient>
    <clipPath id="clip-path-2">
      <path id="Fill_3" data-name="Fill 3" d="M.858,0A1.4,1.4,0,0,0,0,1.477l0,24.93a1.408,1.408,0,0,0,.832,1.471l14.043-13.95L.858,0" transform="translate(0.975 0.075)" fill="url(#linear-gradient-2)"/>
    </clipPath>
    <clipPath id="clip-path-3">
      <path id="Fill_4" data-name="Fill 4" d="M0,13.95a1.663,1.663,0,0,0,1.319-.206L18.455,4.383,14.043,0,0,13.95" transform="translate(1.81 14.003)" fill="url(#linear-gradient-3)"/>
    </clipPath>
  </defs>
  <g id="PlayStore" transform="translate(-0.976 -0.022)">
    <g id="Google_Play_Icon" data-name="Google Play Icon">
      <path id="Fill_1-2" data-name="Fill 1" d="M18.411,9.615,1.3.266A1.685,1.685,0,0,0,0,.054L14.02,13.979l4.392-4.364" transform="translate(1.834 0.022)" fill="url(#linear-gradient)"/>
      <path id="Fill_2" data-name="Fill 2" d="M4.414,8.749l5.843-3.192c1.185-.649,1.185-1.706,0-2.354L4.393,0,0,4.364,4.414,8.749" transform="translate(15.853 9.637)" fill="url(#linear-gradient-5)"/>
      <path id="Fill_3-2" data-name="Fill 3" d="M.858,0A1.4,1.4,0,0,0,0,1.477l0,24.93a1.408,1.408,0,0,0,.832,1.471l14.043-13.95L.858,0" transform="translate(0.975 0.075)" fill="url(#linear-gradient-2)"/>
      <path id="Fill_4-2" data-name="Fill 4" d="M0,13.95a1.663,1.663,0,0,0,1.319-.206L18.455,4.383,14.043,0,0,13.95" transform="translate(1.81 14.003)" fill="url(#linear-gradient-3)"/>
    </g>
    <path id="GooglePlay" d="M46.719,24.634c-3.562,0-5.156-1.743-5.156-3.471a3.482,3.482,0,0,1,1.849-2.96,10.15,10.15,0,0,1,4.531-1.112h.007l.042,0-.051-.068a2.447,2.447,0,0,1-.67-1.586,1.966,1.966,0,0,1,.2-.853l.019-.046.019-.046-.021,0c-.252.024-.513.049-.746.049a3.815,3.815,0,0,1-3.982-3.812A4.394,4.394,0,0,1,44.3,7.475a6.5,6.5,0,0,1,4.294-1.336h4.944L52,7.016H50.51l.006,0a4.131,4.131,0,0,1,1.694,3.272A4.1,4.1,0,0,1,50.2,13.736l-.048.047a1.657,1.657,0,0,0-.627,1.142,1.32,1.32,0,0,0,.607,1.033l.016.013.867.677c1.036.885,2.014,1.72,2.014,3.4C53.03,22.327,50.862,24.634,46.719,24.634Zm1.539-6.869a9.567,9.567,0,0,0-2.517.389,2.718,2.718,0,0,0-2.066,2.5,2.584,2.584,0,0,0,1.149,2.126,5.267,5.267,0,0,0,3.072.835c2.174,0,3.525-1,3.525-2.621,0-1.263-.848-1.931-2.611-3.2A3.629,3.629,0,0,0,48.258,17.765ZM47.08,6.942a2.234,2.234,0,0,0-1.679.8,2.8,2.8,0,0,0-.527,1.793c0,1.507.879,4.321,3,4.321A2.429,2.429,0,0,0,49.5,13.18a2.5,2.5,0,0,0,.6-1.774C50.1,9.581,49.026,6.942,47.08,6.942ZM102.211,22.07A4.768,4.768,0,0,1,101,21.905l.208-1.132a2.837,2.837,0,0,0,.984.189c.677,0,1.229-.237,1.723-1.392l.886-2.029-4.78-11.482h1.354l4.1,9.95,4.06-9.95h1.373l-5.83,13.891A2.974,2.974,0,0,1,102.211,22.07Zm-26.439-.28H74.559V6.059h1.213V7.851a4.8,4.8,0,0,1,3.913-2.076c3.059,0,5.035,2.342,5.035,5.966a6.633,6.633,0,0,1-1.39,4.356,4.618,4.618,0,0,1-3.646,1.633,4.773,4.773,0,0,1-3.913-2.121v6.181ZM79.48,6.883A4.768,4.768,0,0,0,75.772,9.21v5.035a4.807,4.807,0,0,0,3.708,2.374c2.391,0,3.937-1.915,3.937-4.879S81.871,6.883,79.48,6.883ZM8.567,17.741a8.343,8.343,0,0,1-6.61-2.762A8.549,8.549,0,0,1,0,9.506,8.352,8.352,0,0,1,2.391,3.6,9.145,9.145,0,0,1,9.085,1a12.945,12.945,0,0,1,3.443.473,8.648,8.648,0,0,1,2.9,1.365l.072.05-1.868,1.8-.787.178.562-.905-.007-.007A6.4,6.4,0,0,0,8.588,1.814c-3.607,0-6.224,2.823-6.224,6.713,0,4.025,2.789,8.3,7.958,8.3a6.589,6.589,0,0,0,2.855-.566V12.6l-3.4.184,1.8-.978h4.766l-.583.568a.526.526,0,0,0-.222.362c-.024.213-.045.876-.045,1.1V16.6l-3.217.745h-.008A23.2,23.2,0,0,1,8.567,17.741Zm84.641-.105a3.959,3.959,0,0,1-2.755-.891,3.136,3.136,0,0,1-.981-2.426A2.888,2.888,0,0,1,90.9,11.836a6.536,6.536,0,0,1,3.691-.953h2.83V9.468a2.4,2.4,0,0,0-.823-1.921,3.507,3.507,0,0,0-2.323-.7,3.653,3.653,0,0,0-2.222.634,1.946,1.946,0,0,0-.842,1.595H89.965l-.026-.061A2.661,2.661,0,0,1,91.11,6.748a5.073,5.073,0,0,1,3.229-.978,5.011,5.011,0,0,1,3.2.965A3.324,3.324,0,0,1,98.75,9.494v5.617a9.052,9.052,0,0,0,.068,1.174,7.5,7.5,0,0,0,.242,1.128h-1.4c-.076-.371-.138-.718-.186-1.033a6.917,6.917,0,0,1-.059-.888,5.162,5.162,0,0,1-4.209,2.145Zm1.365-5.778a4.642,4.642,0,0,0-2.693.734,2.136,2.136,0,0,0-1.067,1.769,1.978,1.978,0,0,0,.68,1.562,2.742,2.742,0,0,0,1.864.595,4.549,4.549,0,0,0,2.529-.694,3.509,3.509,0,0,0,1.532-1.78V11.858ZM64.59,17.5a5.076,5.076,0,0,1-3.193-.947,6.353,6.353,0,0,1-2.446-5.117,5.393,5.393,0,0,1,1.823-4.216,5.664,5.664,0,0,1,3.675-1.393,4.6,4.6,0,0,1,2.47.68,4.053,4.053,0,0,1,1.676,2.382l.005.02-5.639,2.3-1.847.146c.565,2.918,2.55,4.88,4.94,4.88a5.825,5.825,0,0,0,2.759-.764.231.231,0,0,1,.076-.029s.007,0,.008,0-.011.026-.04.056L67.71,16.6c-.065.036-.129.073-.2.117l-.056.032-.021.013-.01.006-.04.022c-.125.073-.3.174-.464.249A5.5,5.5,0,0,1,64.59,17.5ZM63.773,6.626c-1.108,0-2.758.9-2.758,3.378,0,.254.019.519.04.791l0,.03v.013l0,.066c.012.155.02.269.026.382l4.367-1.918c.461-.169.7-.316.7-.652A2.4,2.4,0,0,0,63.773,6.626ZM35.636,17.447a5.665,5.665,0,0,1-4.356-1.842,5.854,5.854,0,0,1-1.5-3.882,5.76,5.76,0,0,1,1.739-4.141A6.316,6.316,0,0,1,36,5.825a5.648,5.648,0,0,1,4.19,1.763,5.868,5.868,0,0,1,1.545,3.964,5.894,5.894,0,0,1-6.1,5.9Zm-.26-10.869a3.345,3.345,0,0,0-2.163.824,3.7,3.7,0,0,0-1.1,2.965,9.582,9.582,0,0,0,.95,4.076,3.63,3.63,0,0,0,3.129,2.277,3.039,3.039,0,0,0,2.449-1.236,4.329,4.329,0,0,0,.721-2.691C39.358,10.765,38.385,6.578,35.376,6.578ZM22.87,17.447a5.664,5.664,0,0,1-4.355-1.842,5.857,5.857,0,0,1-1.495-3.882,5.762,5.762,0,0,1,1.738-4.141,6.32,6.32,0,0,1,4.474-1.758,5.641,5.641,0,0,1,4.188,1.763,5.868,5.868,0,0,1,1.544,3.964,5.892,5.892,0,0,1-6.093,5.9ZM22.609,6.578a3.293,3.293,0,0,0-2.158.824,3.7,3.7,0,0,0-1.105,2.965,9.586,9.586,0,0,0,.951,4.076,3.629,3.629,0,0,0,3.128,2.277,3.039,3.039,0,0,0,2.446-1.236,4.337,4.337,0,0,0,.72-2.691C26.591,10.765,25.617,6.578,22.609,6.578ZM87.591,17.446H86.378V1.715h1.213V17.445ZM58.36,17.134H54.131l.064-.084.083-.108c.426-.556.5-.656.5-1.094v-.542L54.772.876H52.906L54.7,0h3.431a1.671,1.671,0,0,0-1.061,1.551l-.005,13.765c0,.969.193,1.093.955,1.164.185.023.368.039.546.054h.007l.055,0h.01c.233.02.426.038.607.059l-.886.534Z" transform="translate(35.055 3.425)" fill="#fff"/>
  </g>
</svg>
