<svg xmlns="http://www.w3.org/2000/svg" width="1576.801" height="115.948" viewBox="0 0 1576.801 115.948">
  <defs>
    <style>
      .cls-1 {
        fill: #3949ab;
      }
    </style>
  </defs>
  <path id="PopRock" class="cls-1" d="M1438.4,115.948h-.015a8.4,8.4,0,0,1-3.9-.92,9.069,9.069,0,0,1-3.558-3.113l-12.962-21.6-8.066,10.947a8.752,8.752,0,0,1-14.4-.576l-17.572-29.67-15.267,19.877a8.62,8.62,0,0,1-14.115-.577l-40.143-65.6-40.142,65.6a8.62,8.62,0,0,1-14.115.577l-15.267-19.877-17.572,29.67a8.752,8.752,0,0,1-14.4.576l-8.066-10.947-12.962,21.6a9.065,9.065,0,0,1-3.558,3.113,8.4,8.4,0,0,1-3.9.92h-.031a8.406,8.406,0,0,1-3.9-.92,9.064,9.064,0,0,1-3.558-3.113l-12.962-21.6-8.066,10.947a8.752,8.752,0,0,1-14.4-.576l-17.571-29.67-15.268,19.877a8.62,8.62,0,0,1-14.115-.577l-40.142-65.6-40.142,65.6a8.62,8.62,0,0,1-14.115.577L978.877,71.011l-17.572,29.67a8.752,8.752,0,0,1-14.4.576l-8.066-10.947-12.962,21.6a9.069,9.069,0,0,1-3.558,3.113,8.4,8.4,0,0,1-3.9.92h-.031a8.4,8.4,0,0,1-3.9-.92,9.069,9.069,0,0,1-3.558-3.113l-12.962-21.6L889.9,101.257a8.752,8.752,0,0,1-14.4-.576l-17.571-29.67L842.657,90.887a8.62,8.62,0,0,1-14.115-.577L788.4,24.712l-40.143,65.6a8.62,8.62,0,0,1-14.115.577L718.877,71.011l-17.572,29.67a8.752,8.752,0,0,1-14.4.576l-8.065-10.947-12.963,21.6a9.053,9.053,0,0,1-3.562,3.115,8.4,8.4,0,0,1-3.9.918h-.031a8.4,8.4,0,0,1-3.91-.924,9.061,9.061,0,0,1-3.549-3.109l-12.963-21.6L629.9,101.257a8.752,8.752,0,0,1-14.4-.576l-17.571-29.67L582.658,90.887a8.62,8.62,0,0,1-14.115-.577L528.4,24.712l-40.143,65.6a8.62,8.62,0,0,1-14.115.577L458.877,71.011l-17.572,29.67a8.752,8.752,0,0,1-14.4.576l-8.065-10.947-12.963,21.6a9.061,9.061,0,0,1-3.557,3.113,8.417,8.417,0,0,1-3.9.92h-.031a8.4,8.4,0,0,1-3.91-.924,9.061,9.061,0,0,1-3.549-3.109l-12.963-21.6L369.9,101.257a8.752,8.752,0,0,1-14.4-.576l-17.571-29.67L322.658,90.887a8.62,8.62,0,0,1-14.115-.577L268.4,24.712l-40.143,65.6a8.62,8.62,0,0,1-14.115.577L198.877,71.011l-17.572,29.67a8.752,8.752,0,0,1-14.4.576l-8.065-10.947-12.963,21.6a9.061,9.061,0,0,1-3.559,3.114,8.412,8.412,0,0,1-3.9.919h-.03a8.4,8.4,0,0,1-3.9-.92,9.063,9.063,0,0,1-3.558-3.113l-12.963-21.6L109.9,101.257a8.752,8.752,0,0,1-14.4-.576L77.925,71.011,62.658,90.887a8.62,8.62,0,0,1-14.115-.577L1.3,13.113A8.539,8.539,0,0,1,4.183,1.3a8.538,8.538,0,0,1,11.81,2.881L56.609,70.435,71.876,50.559a8.481,8.481,0,0,1,14.115.576l17.571,29.381,8.066-10.658a8.752,8.752,0,0,1,14.4.576L138.4,90.993l12.371-20.558a8.752,8.752,0,0,1,14.4-.576l8.066,10.658,17.571-29.381a8.481,8.481,0,0,1,14.115-.576l15.267,19.876L260.808,4.183a8.984,8.984,0,0,1,15.185,0l40.615,66.252,15.268-19.876a8.48,8.48,0,0,1,14.114.576l17.572,29.381,8.066-10.658a8.752,8.752,0,0,1,14.4.576L398.4,90.993l12.371-20.558a8.752,8.752,0,0,1,14.4-.576l8.066,10.658,17.571-29.381a8.481,8.481,0,0,1,14.115-.576l15.267,19.876L520.808,4.183a8.984,8.984,0,0,1,15.185,0l40.615,66.252,15.267-19.876a8.481,8.481,0,0,1,14.115.576l17.572,29.381,8.066-10.658a8.752,8.752,0,0,1,14.4.576L658.4,90.993l12.37-20.558a8.752,8.752,0,0,1,14.4-.576l8.066,10.658,17.571-29.381a8.481,8.481,0,0,1,14.115-.576l15.267,19.876L780.808,4.183a8.985,8.985,0,0,1,15.186,0l40.615,66.252,15.267-19.876a8.481,8.481,0,0,1,14.115.576l17.572,29.381,8.065-10.658a8.752,8.752,0,0,1,14.4.576L918.4,90.994l12.371-20.559a8.752,8.752,0,0,1,14.4-.576l8.065,10.658,17.572-29.381a8.481,8.481,0,0,1,14.115-.576l15.267,19.876,40.615-66.252a8.985,8.985,0,0,1,15.186,0l40.615,66.252,15.267-19.876a8.481,8.481,0,0,1,14.115.576l17.572,29.381,8.065-10.658a8.752,8.752,0,0,1,14.4.576L1178.4,90.993l12.371-20.559a8.752,8.752,0,0,1,14.4-.576l8.065,10.658,17.572-29.381a8.481,8.481,0,0,1,14.115-.576l15.267,19.876,40.615-66.252a8.984,8.984,0,0,1,15.186,0l40.615,66.252,15.267-19.876a8.481,8.481,0,0,1,14.115.576l17.572,29.381,8.065-10.658a8.752,8.752,0,0,1,14.4.576L1438.4,90.993l12.371-20.558a8.751,8.751,0,0,1,14.4-.576l8.066,10.658,17.572-29.381a8.481,8.481,0,0,1,14.115-.576l15.267,19.876,40.615-66.252a8.6,8.6,0,1,1,14.691,8.93l-47.241,77.2a8.619,8.619,0,0,1-14.114.577l-15.268-19.877-17.571,29.67a8.752,8.752,0,0,1-14.4.576l-8.066-10.947-12.963,21.6a9.064,9.064,0,0,1-3.556,3.112,8.4,8.4,0,0,1-3.9.921Z" transform="translate(0 0)"/>
</svg>
