<?xml version="1.0" encoding="UTF-8" standalone="no"?>
<svg width="24px" height="23px" viewBox="0 0 24 23" version="1.1" xmlns="http://www.w3.org/2000/svg" xmlns:xlink="http://www.w3.org/1999/xlink">
    <!-- Generator: Sketch 39.1 (31720) - http://www.bohemiancoding.com/sketch -->
    <title>socialmedia_messenger</title>
    <desc>Created with Sketch.</desc>
    <defs></defs>
    <g id="Icons" stroke="none" stroke-width="1" fill="none" fill-rule="evenodd">
        <g id="socialmedia_messenger" transform="translate(-12.000000, -13.000000)" fill="#000000">
            <g transform="translate(12.000000, 13.000000)" id="Shape">
                <path d="M21.6,0 L2.4,0 C1.0992,0 0,1.0992 0,2.4 L0,15.6 C0,16.9008 1.0992,18 2.4,18 L5.6,18 L5.6,22 C5.6,22.1652 5.7016,22.3136 5.8556,22.3732 C5.9028,22.3916 5.9516,22.4 6,22.4 C6.1104,22.4 6.2188,22.3544 6.296,22.2692 L10.1768,18 L21.6,18 C22.9008,18 24,16.9008 24,15.6 L24,2.4 C24,1.0992 22.9008,0 21.6,0 L21.6,0 Z M20.3548,4.5852 L15.5548,13.7852 C15.5012,13.888 15.4052,13.9624 15.292,13.9896 C15.2616,13.9964 15.2308,14 15.2,14 C15.1168,14 15.0344,13.974 14.966,13.9244 L8.0556,8.9336 L4.296,13.0692 C4.1616,13.2164 3.9384,13.2424 3.774,13.13 C3.6092,13.0172 3.5528,12.8 3.642,12.6212 L7.642,4.6212 C7.6944,4.516 7.7904,4.4396 7.9044,4.412 C8.0188,4.384 8.1388,4.4076 8.234,4.476 L15.1356,9.46 L19.6964,4.14 C19.8288,3.9856 20.0552,3.9544 20.2244,4.0688 C20.3924,4.1824 20.4488,4.4048 20.3548,4.5852 L20.3548,4.5852 Z"></path>
            </g>
        </g>
    </g>
</svg>