<?xml version="1.0" encoding="UTF-8" standalone="no"?>
<svg width="24px" height="24px" viewBox="0 0 24 24" version="1.1" xmlns="http://www.w3.org/2000/svg" xmlns:xlink="http://www.w3.org/1999/xlink">
    <!-- Generator: Sketch 39.1 (31720) - http://www.bohemiancoding.com/sketch -->
    <title>socialmedia_whatsapp</title>
    <desc>Created with Sketch.</desc>
    <defs></defs>
    <g id="Icons" stroke="none" stroke-width="1" fill="none" fill-rule="evenodd">
        <g id="socialmedia_whatsapp" class="whitey" transform="translate(-12.000000, -12.000000)" fill="#000000">
            <g transform="translate(12.000000, 12.000000)">
                <path d="M17.7587532,13.7907273 C17.712,13.7682857 15.9623377,12.9067013 15.6514286,12.7948052 C15.5244935,12.7492208 15.3885195,12.7047273 15.2438961,12.7047273 C15.0076364,12.7047273 14.8091688,12.8224675 14.6545714,13.0537403 C14.4797922,13.3135325 13.9507013,13.932 13.7872208,14.1167532 C13.7658701,14.1411429 13.7367273,14.1702857 13.7192727,14.1702857 C13.7036104,14.1702857 13.4328312,14.0587792 13.3508571,14.0231688 C11.4739481,13.2078701 10.0492987,11.2472727 9.85394805,10.9166494 C9.82605195,10.8691169 9.82488312,10.8475325 9.82464935,10.8475325 C9.83150649,10.8223636 9.89462338,10.7590909 9.92719481,10.7264416 C10.0224935,10.6321558 10.1257403,10.5078701 10.2256364,10.3876364 C10.2729351,10.3306753 10.3203117,10.2736364 10.3668312,10.2198701 C10.5117662,10.0512468 10.5762857,9.92033766 10.6510909,9.7687013 L10.6902857,9.68992208 C10.8729351,9.32703896 10.7169351,9.02080519 10.6665195,8.92192208 C10.6251429,8.83916883 9.88636364,7.05615584 9.80781818,6.86883117 C9.61893506,6.41680519 9.36935065,6.20633766 9.02251948,6.20633766 C8.99033766,6.20633766 9.02251948,6.20633766 8.88755844,6.21202597 C8.72322078,6.21896104 7.82828571,6.33677922 7.4325974,6.58620779 C7.01298701,6.85075325 6.30311688,7.69402597 6.30311688,9.17703896 C6.30311688,10.5117662 7.15012987,11.772 7.51379221,12.2512987 C7.52283117,12.2633766 7.53942857,12.2879221 7.56350649,12.3231429 C8.95620779,14.3570649 10.6923896,15.8643896 12.4524156,16.5674805 C14.1468312,17.2443117 14.9491948,17.3225455 15.4053506,17.3225455 L15.4054286,17.3225455 C15.5971169,17.3225455 15.7505455,17.3075065 15.8858961,17.2941818 L15.9717662,17.286 C16.5571169,17.2341039 17.8434545,16.5675584 18.1360519,15.7544416 C18.3665455,15.114 18.4273247,14.4142597 18.273974,14.1603117 C18.1689351,13.9876364 17.9879221,13.9007532 17.7587532,13.7907273 L17.7587532,13.7907273 Z" id="XMLID_469_"></path>
                <path d="M12.213039,0 C5.71309091,0 0.424987013,5.24836364 0.424987013,11.6994545 C0.424987013,13.785974 0.983376623,15.8283896 2.04116883,17.6159221 L0.0165194805,23.5882597 C-0.0211948052,23.6996104 0.00685714286,23.8227273 0.0892207792,23.9065714 C0.148675325,23.9672727 0.229324675,24 0.311688312,24 C0.343246753,24 0.375038961,23.9952468 0.406051948,23.9853506 L6.63358442,22.0064416 C8.33774026,22.916961 10.2638182,23.3975844 12.2131169,23.3975844 C18.7124416,23.3976623 24,18.1498442 24,11.6994545 C24,5.24836364 18.7124416,0 12.213039,0 L12.213039,0 Z M12.213039,20.9605714 C10.3788312,20.9605714 8.60228571,20.4309351 7.07516883,19.4288571 C7.02381818,19.3951169 6.96420779,19.3778182 6.90420779,19.3778182 C6.87249351,19.3778182 6.8407013,19.3826494 6.80976623,19.3924675 L3.69015584,20.3841039 L4.69722078,17.413013 C4.72979221,17.3168571 4.71350649,17.2108052 4.65350649,17.1288312 C3.4905974,15.5398442 2.87587013,13.6624675 2.87587013,11.6994545 C2.87587013,6.59220779 7.06449351,2.43709091 12.212961,2.43709091 C17.3608052,2.43709091 21.548961,6.59220779 21.548961,11.6994545 C21.549039,16.8060779 17.360961,20.9605714 12.213039,20.9605714 L12.213039,20.9605714 Z" id="XMLID_470_"></path>
            </g>
        </g>
    </g>
</svg>