<?xml version="1.0" encoding="UTF-8" standalone="no"?>
<svg width="24px" height="17px" viewBox="0 0 24 17" version="1.1" xmlns="http://www.w3.org/2000/svg" xmlns:xlink="http://www.w3.org/1999/xlink">
    <!-- Generator: Sketch 39.1 (31720) - http://www.bohemiancoding.com/sketch -->
    <title>socialmedia_youtube</title>
    <desc>Created with Sketch.</desc>
    <defs></defs>
    <g id="Icons" stroke="none" stroke-width="1" fill="none" fill-rule="evenodd">
        <g id="socialmedia_youtube" class="yt" transform="translate(-12.000000, -15.000000)" fill="#000000">
            <g transform="translate(12.000000, 15.000000)" id="youtube">
                <path d="M23.0645419,1.52090323 C22.1982194,0.491070968 20.5987355,0.0709935484 17.5440774,0.0709935484 L6.45569032,0.0709935484 C3.33112258,0.0709935484 1.70454194,0.518167742 0.841470968,1.61458065 C0,2.6835871 0,4.25868387 0,6.43865806 L0,10.5936774 C0,14.8169806 0.9984,16.9612645 6.45569032,16.9612645 L17.5441548,16.9612645 C20.1931355,16.9612645 21.6610065,16.5905806 22.6106323,15.6817548 C23.5844903,14.7497806 24,13.2281032 24,10.5936774 L24,6.43865806 C24,4.13969032 23.9348903,2.55530323 23.0645419,1.52090323 L23.0645419,1.52090323 Z M15.4080774,9.08980645 L10.3728774,11.7213677 C10.2603097,11.7802065 10.1372129,11.8093935 10.014271,11.8093935 C9.87507097,11.8093935 9.73618065,11.7719226 9.61316129,11.6974452 C9.38152258,11.5570839 9.24007742,11.3060129 9.24007742,11.0352 L9.24007742,5.78895484 C9.24007742,5.51860645 9.38113548,5.26776774 9.61230968,5.12732903 C9.84356129,4.98689032 10.1311742,4.97729032 10.3710968,5.10193548 L15.4062968,7.71654194 C15.6624774,7.84954839 15.8233548,8.1140129 15.8237419,8.40255484 C15.8240516,8.69132903 15.663871,8.95618065 15.4080774,9.08980645 L15.4080774,9.08980645 Z"></path>
            </g>
        </g>
    </g>
</svg>