<?xml version="1.0" encoding="UTF-8" standalone="no"?>
<svg width="24px" height="18px" viewBox="0 0 24 18" version="1.1" xmlns="http://www.w3.org/2000/svg" xmlns:xlink="http://www.w3.org/1999/xlink">
    <!-- Generator: Sketch 39.1 (31720) - http://www.bohemiancoding.com/sketch -->
    <title>socialmedia_gmail</title>
    <desc>Created with Sketch.</desc>
    <defs></defs>
    <g id="Icons" stroke="none" stroke-width="1" fill="none" fill-rule="evenodd">
        <g id="socialmedia_gmail" class="whitey" transform="translate(-12.000000, -15.000000)" fill="#000000">
            <g transform="translate(12.000000, 15.000000)" id="Shape">
                <path d="M23.961037,15.0077037 C23.961037,15.5329877 23.813284,16.0199506 23.5765926,16.4483951 L16.0111111,7.9837037 L23.4945679,1.43634568 C23.785679,1.89832099 23.961037,2.44098765 23.961037,3.02740741 L23.961037,15.0077037 L23.961037,15.0077037 Z M11.9805432,9.52064198 L22.3935309,0.409530864 C21.9662222,0.175604938 21.485037,0.0321481481 20.9659753,0.0321481481 L2.99511111,0.0321481481 C2.47540741,0.0321481481 1.99407407,0.175604938 1.56849383,0.409530864 L11.9805432,9.52064198 L11.9805432,9.52064198 Z M14.8836049,8.9694321 L12.473284,11.0797531 C12.3322963,11.2025679 12.1567407,11.2639012 11.9805432,11.2639012 C11.8042469,11.2639012 11.6286914,11.2025679 11.4877037,11.0797531 L9.07683951,8.96933333 L1.41565432,17.5422222 C1.8748642,17.830321 2.41303704,18.0029136 2.99506173,18.0029136 L20.9659753,18.0029136 C21.5479012,18.0029136 22.086321,17.830321 22.5453827,17.5422222 L14.8836049,8.9694321 L14.8836049,8.9694321 Z M0.466567901,1.4362963 C0.175506173,1.8982716 0,2.44093827 0,3.02740741 L0,15.0077531 C0,15.533037 0.147061728,16.02 0.384641975,16.4484444 L7.94923457,7.9822716 L0.466567901,1.4362963 L0.466567901,1.4362963 Z"></path>
            </g>
        </g>
    </g>
</svg>