<?xml version="1.0" encoding="UTF-8" standalone="no"?>
<svg width="20px" height="24px" viewBox="0 0 20 24" version="1.1" xmlns="http://www.w3.org/2000/svg" xmlns:xlink="http://www.w3.org/1999/xlink">
    <!-- Generator: Sketch 39.1 (31720) - http://www.bohemiancoding.com/sketch -->
    <title>tickets_camping_standard</title>
    <desc>Created with Sketch.</desc>
    <defs></defs>
    <g id="Icons" stroke="none" stroke-width="1" fill="none" fill-rule="evenodd">
        <g id="tickets_camping_standard" class="whitey" transform="translate(-14.000000, -12.000000)" fill="#000000">
            <g transform="translate(14.000000, 12.000000)" id="Shape">
                <path d="M12.0232031,24 L19.9634063,24 L10.3325156,4.44257813 L13.1672813,2.4819375 L12.7610625,1.89459375 L10.2331875,3.6429375 L10.2331875,0 L9.51909375,0 L9.51909375,3.64298438 L6.99126563,1.89464062 L6.58509375,2.48198437 L9.42210938,4.444125 L0.00534375,24 L11.0709375,24 L11.0709375,23.2859063 L6.32784375,23.2859063 L9.8761875,16.5376875 L13.4245313,23.2859063 L12.0232031,23.2859063 L12.0232031,24 L12.0232031,24 Z M5.37965625,23.2859063 L1.14178125,23.2859063 L1.53595313,22.4672812 L5.37965625,22.4672812 L5.37965625,23.2859063 L5.37965625,23.2859063 Z M6.09375,22.1967656 L6.09375,16.1275312 L9.285,16.1275312 L6.09375,22.1967656 L6.09375,22.1967656 Z M9.51909375,15.4134375 L5.37960938,15.4134375 L5.37960938,21.7531875 L1.87982813,21.7531875 L9.51914063,5.88853125 L9.51914063,15.4134375 L9.51909375,15.4134375 Z M18.8157656,23.2859063 L14.2313438,23.2859063 L13.8009375,22.4672812 L18.4126406,22.4672812 L18.8157656,23.2859063 L18.8157656,23.2859063 Z M10.2332344,15.6823125 L10.2332344,5.8573125 L18.0610313,21.7531875 L13.4254688,21.7531875 L10.2332344,15.6823125 L10.2332344,15.6823125 Z"></path>
            </g>
        </g>
    </g>
</svg>