<?xml version="1.0" encoding="UTF-8" standalone="no"?>
<svg width="24px" height="24px" viewBox="0 0 24 24" version="1.1" xmlns="http://www.w3.org/2000/svg" xmlns:xlink="http://www.w3.org/1999/xlink">
    <!-- Generator: Sketch 39.1 (31720) - http://www.bohemiancoding.com/sketch -->
    <title>tickets_info</title>
    <desc>Created with Sketch.</desc>
    <defs></defs>
    <g id="Icons" stroke="none" stroke-width="1" fill="none" fill-rule="evenodd">
        <g id="tickets_info" transform="translate(-12.000000, -12.000000)" fill="#000000">
            <g transform="translate(12.000000, 12.000000)" id="Shape">
                <path d="M12.5571081,5.64364865 C11.7105405,5.36148649 10.722973,5.64364865 10.0174865,6.20797297 C9.312,6.7722973 8.88875676,7.61886486 8.88875676,8.60651351 C8.88875676,9.02975676 9.17091892,9.312 9.59424324,9.312 C10.0174865,9.312 10.2997297,9.02983784 10.2997297,8.60651351 C10.2997297,8.18327027 10.4408108,7.61886486 10.8640541,7.3367027 C11.2872973,7.05454054 11.7106216,6.91345946 12.2749459,7.05454054 C12.9804324,7.19562162 13.4036757,7.76002703 13.5447568,8.32435135 C13.6858378,9.02983784 13.5447568,9.59416216 12.9804324,10.0174865 C11.8517027,10.8640541 11.2872973,12.1338649 11.2872973,13.4036757 C11.2872973,13.8269189 11.5694595,14.1091622 11.9927838,14.1091622 C12.416027,14.1091622 12.6982703,13.827 12.5571081,13.4036757 C12.5571081,12.5571081 13.1214324,11.7105405 13.8269189,11.1462162 C14.8145676,10.2996486 15.2378108,9.17091892 14.9556486,8.04218919 C14.6734054,6.77237838 13.6858378,5.92581081 12.5571081,5.64364865 L12.5571081,5.64364865 Z"></path>
                <path d="M11.4283784,17.072027 C11.2872973,17.2131081 11.2872973,17.4952703 11.2872973,17.6363514 C11.2872973,17.7774324 11.2872973,17.9185135 11.4283784,18.0595946 C11.5694595,18.2006757 11.8516216,18.3417568 11.9927027,18.3417568 C12.1337838,18.3417568 12.4159459,18.2006757 12.4159459,18.0595946 C12.557027,18.0595946 12.6981081,17.7774324 12.6981081,17.6363514 C12.6981081,17.3541892 12.557027,17.2131081 12.4159459,17.072027 C12.1337838,16.7897838 11.7105405,16.7897838 11.4283784,17.072027 L11.4283784,17.072027 Z"></path>
                <path d="M11.9927027,0 C5.36140541,0 0,5.36140541 0,11.9927027 C0,18.624 5.36140541,23.9854054 11.9927027,23.9854054 C18.624,23.9854054 23.9854054,18.624 23.9854054,11.9927027 C23.9854054,5.36140541 18.624,0 11.9927027,0 L11.9927027,0 Z M11.9927027,22.5745135 C6.20797297,22.5745135 1.41089189,17.7774324 1.41089189,11.9927027 C1.41089189,6.20797297 6.20797297,1.41089189 11.9927027,1.41089189 C17.7774324,1.41089189 22.5745135,6.20797297 22.5745135,11.9927027 C22.5745135,17.7774324 17.7774324,22.5745135 11.9927027,22.5745135 L11.9927027,22.5745135 Z"></path>
            </g>
        </g>
    </g>
</svg>