<?xml version="1.0" encoding="UTF-8" standalone="no"?>
<svg width="24px" height="24px" viewBox="0 0 24 24" version="1.1" xmlns="http://www.w3.org/2000/svg" xmlns:xlink="http://www.w3.org/1999/xlink">
    <!-- Generator: Sketch 39.1 (31720) - http://www.bohemiancoding.com/sketch -->
    <title>tickets_standard</title>
    <desc>Created with Sketch.</desc>
    <defs></defs>
    <g id="Icons" stroke="none" stroke-width="1" fill="none" fill-rule="evenodd">
        <g id="tickets_standard" class="whitey" transform="translate(-12.000000, -12.000000)" fill="#000000">
            <g transform="translate(12.000000, 12.000000)" id="Shape">
                <path d="M21.1990154,6.27692308 L20.9379692,6.53796923 C20.4491077,7.02683077 20.0935385,7.16824615 19.3528615,7.16824615 C17.8552615,7.16824615 16.7682462,6.08123077 16.7682462,4.58363077 C16.7682462,3.84295385 16.9096615,3.48738462 17.3985231,2.99852308 L17.6595692,2.73747692 L14.9220923,0 L0,14.9220923 L2.73747692,17.6595692 L2.99852308,17.3985231 C3.48738462,16.9096615 3.84295385,16.7682462 4.58363077,16.7682462 C6.08123077,16.7682462 7.16824615,17.8552615 7.16824615,19.3528615 C7.16824615,20.0935385 7.02683077,20.4491077 6.53796923,20.9379692 L6.27692308,21.1990154 L9.0144,23.9364923 L23.9364923,9.0144 L21.1990154,6.27692308 L21.1990154,6.27692308 Z M7.31076923,21.1883077 C7.75089231,20.6636308 7.90670769,20.1581538 7.90670769,19.3528615 C7.90670769,17.4583385 6.47815385,16.0297846 4.58363077,16.0297846 C3.77833846,16.0297846 3.27286154,16.1856 2.74781538,16.6257231 L1.04418462,14.9220923 L9.75286154,6.21341538 L10.9687385,7.42929231 L11.4908308,6.9072 L10.2749538,5.69132308 L14.9220923,1.04418462 L16.6257231,2.74818462 C16.1856,3.27286154 16.0297846,3.77833846 16.0297846,4.58363077 C16.0297846,6.47815385 17.4583385,7.90670769 19.3528615,7.90670769 C20.1581538,7.90670769 20.6636308,7.75089231 21.1886769,7.31076923 L22.8923077,9.0144 L18.2451692,13.6615385 L17.0292923,12.4456615 L16.5072,12.9677538 L17.7230769,14.1836308 L9.0144,22.8923077 L7.31076923,21.1883077 L7.31076923,21.1883077 Z"></path>
                <polygon points="13.1841231 9.64504615 11.7072 8.16812308 12.2292923 7.64603077 13.7062154 9.12295385"></polygon>
                <polygon points="15.7687385 12.2296615 14.2918154 10.7527385 14.8139077 10.2306462 16.2908308 11.7075692"></polygon>
            </g>
        </g>
    </g>
</svg>