<?xml version="1.0" encoding="UTF-8" standalone="no"?>
<svg width="12px" height="16px" viewBox="0 0 12 16" version="1.1" xmlns="http://www.w3.org/2000/svg" xmlns:xlink="http://www.w3.org/1999/xlink">
    <!-- Generator: Sketch 39.1 (31720) - http://www.bohemiancoding.com/sketch -->
    <title>tickets_securtiy</title>
    <desc>Created with Sketch.</desc>
    <defs></defs>
    <g id="Icons" stroke="none" stroke-width="1" fill="none" fill-rule="evenodd">
        <g id="tickets_security" transform="translate(-18.000000, -16.000000)" fill="#000000">
            <g id="tickets_securtiy" transform="translate(18.000000, 16.000000)">
                <path d="M11.13216,6.290016 L10.828672,6.290016 L10.828672,4.8696 C10.828672,2.242432 8.74384,0.047808 6.138048,0.00096 C6.066848,-0.00032 5.924576,-0.00032 5.853408,0.00096 C3.247552,0.047808 1.162752,2.242432 1.162752,4.8696 L1.162752,6.290016 L0.859232,6.290016 C0.39152,6.290016 0.010016,6.77264 0.010016,7.368704 L0.010016,14.492928 C0.010016,15.08832 0.39152,15.575456 0.859264,15.575456 L11.13216,15.575456 C11.599872,15.575456 11.981408,15.08832 11.981408,14.492928 L11.981408,7.368704 C11.981408,6.772672 11.599904,6.290016 11.13216,6.290016 L11.13216,6.290016 Z M6.958144,10.923584 L6.958144,13.076256 C6.958144,13.322752 6.751776,13.53136 6.505088,13.53136 L5.4864,13.53136 C5.23968,13.53136 5.033312,13.322752 5.033312,13.076256 L5.033312,10.923584 C4.794048,10.688064 4.654752,10.3624 4.654752,10.002144 C4.654752,9.319456 5.182464,8.732832 5.85344,8.705728 C5.924544,8.702848 6.066976,8.702848 6.13808,8.705728 C6.809056,8.732832 7.336768,9.319456 7.336768,10.002144 C7.336704,10.3624 7.197408,10.688064 6.958144,10.923584 L6.958144,10.923584 Z M8.828352,6.290016 L6.138048,6.290016 L5.853408,6.290016 L3.163104,6.290016 L3.163104,4.8696 C3.163104,3.30464 4.434912,2.010656 5.995712,2.010656 C7.556512,2.010656 8.828384,3.30464 8.828384,4.8696 L8.828384,6.290016 L8.828352,6.290016 Z" id="Shape"></path>
            </g>
        </g>
    </g>
</svg>