<?xml version="1.0" encoding="UTF-8" standalone="no"?>
<svg width="24px" height="24px" viewBox="0 0 24 24" version="1.1" xmlns="http://www.w3.org/2000/svg" xmlns:xlink="http://www.w3.org/1999/xlink">
    <!-- Generator: Sketch 39.1 (31720) - http://www.bohemiancoding.com/sketch -->
    <title>tickets_camping_vip</title>
    <desc>Created with Sketch.</desc>
    <defs></defs>
    <g id="Icons" stroke="none" stroke-width="1" fill="none" fill-rule="evenodd">
        <g id="tickets_camping_vip" class="whitey" transform="translate(-12.000000, -12.000000)" fill="#000000">
            <g transform="translate(12.000000, 12.000000)" id="Shape">
                <path d="M11.6000156,5.60001563 C11.8207969,5.60001563 12,5.4208125 12,5.20003125 L12,0.800015625 L14.6344219,0.800015625 L14.1172031,1.3171875 C13.9607812,1.47360938 13.9607812,1.72640625 14.1172031,1.88278125 L14.6344219,2.4 L13.2,2.4 C12.9792187,2.4 12.8000156,2.57920313 12.8000156,2.79998438 C12.8000156,3.02076563 12.9792187,3.19996875 13.2,3.19996875 L15.6,3.19996875 C15.7615781,3.19996875 15.9075937,3.102375 15.9696094,2.95317188 C16.031625,2.80359375 15.9972187,2.6315625 15.8827969,2.5171875 L14.9655937,1.59998438 L15.8827969,0.68278125 C15.9972187,0.568359375 16.0315781,0.396375 15.9696094,0.246796875 C15.9075937,0.09759375 15.761625,0 15.6,0 L11.6000156,0 C11.3792344,0 11.2000312,0.179203125 11.2000312,0.399984375 L11.2000312,5.19998438 C11.2000312,5.4208125 11.3792344,5.60001563 11.6000156,5.60001563 L11.6000156,5.60001563 Z"></path>
                <path d="M23.9960156,23.5432031 C23.9900156,23.5007813 23.3684062,19.2443906 21.6192187,15.0459844 C20.1684375,11.5639688 18.3492187,9.09679688 16.2472031,7.71117188 C16.2187969,7.68515625 16.1892187,7.66317188 16.1548125,7.64639063 C14.8684219,6.82120313 13.4772187,6.39998438 12,6.39998438 C10.5232031,6.39998438 9.132,6.82120313 7.84598437,7.64559375 C7.81078125,7.66317188 7.78040625,7.68520313 7.75157812,7.71201563 C5.65035937,9.09801563 3.8311875,11.5648125 2.38078125,15.0460313 C0.63159375,19.2443906 0.01003125,23.5008281 0.00403125,23.5432031 C-0.012375,23.658 0.02203125,23.7743906 0.098015625,23.862 C0.174,23.9496094 0.284015625,24 0.40003125,24 L4.40001562,24 C4.62079687,24 4.8,23.8207969 4.8,23.6000156 C4.8,23.3792344 4.62079687,23.2000313 4.40001562,23.2000313 L0.87159375,23.2000313 C0.93440625,22.8420469 1.04039062,22.2864375 1.19278125,21.6000469 L5.69676562,21.6000469 C5.65434375,22.0828594 5.62715625,22.5692344 5.61557812,23.0584219 C5.60639062,23.2416094 5.59996875,23.4232031 5.59996875,23.6000156 C5.59996875,23.8207969 5.77917187,24 5.99995312,24 C6.22073437,24 6.3999375,23.8207969 6.3999375,23.6000156 C6.3999375,19.9372031 8.63353125,14.4 11.9999531,14.4 C15.366375,14.4 17.5999687,19.9372031 17.5999687,23.6000156 C17.5999687,23.8207969 17.7791719,24 17.9999531,24 C18.2207344,24 18.3999375,23.8207969 18.3999375,23.6000156 C18.3999375,23.4232031 18.3935156,23.2416094 18.3843281,23.0584219 C18.37275,22.5692344 18.3455156,22.0828125 18.3031406,21.6000469 L22.807125,21.6000469 C22.9595156,22.2864375 23.0655469,22.8420469 23.1283125,23.2000313 L19.5998906,23.2000313 C19.3791094,23.2000313 19.1999062,23.3792344 19.1999062,23.6000156 C19.1999062,23.8207969 19.3791094,24 19.5998906,24 L23.599875,24 C23.7158906,24 23.8258594,23.9496094 23.9018906,23.862 C23.9779219,23.7743906 24.0124219,23.658 23.9960156,23.5432031 L23.9960156,23.5432031 Z M12,7.2 C13.0664062,7.2 14.0360156,7.44839063 14.9215781,7.87401563 C13.8759844,8.201625 12.8987812,8.669625 12,9.27121875 C11.1012187,8.669625 10.1240156,8.201625 9.07842187,7.87401563 C9.96403125,7.44839063 10.9335937,7.2 12,7.2 L12,7.2 Z M5.77523437,20.8000313 L1.37882812,20.8000313 C2.26242187,17.1620156 4.26084375,11.0380313 8.09925,8.4328125 C9.29882812,8.71842188 10.3660312,9.17521875 11.3108437,9.76682813 C9.9804375,10.8076406 8.84442187,12.1636406 7.9404375,13.8072188 C6.83001562,15.8252344 6.09079687,18.2420156 5.77523437,20.8000313 L5.77523437,20.8000313 Z M12,13.6000313 C10.1404219,13.6000313 8.60160937,14.9432344 7.49920312,16.7896406 C8.37839062,14.2160625 9.827625,11.8472344 12,10.2336563 C14.1724219,11.8472344 15.6216094,14.2160625 16.5007969,16.7896406 C15.3983906,14.9431875 13.859625,13.6000313 12,13.6000313 L12,13.6000313 Z M18.2248125,20.8000313 C17.9092031,18.2420156 17.1700312,15.8252344 16.0596094,13.8072188 C15.155625,12.1636406 14.0196094,10.8075938 12.6892031,9.76682813 C13.6340156,9.17521875 14.7012187,8.71842188 15.9007969,8.4328125 C19.7392031,11.0380313 21.7375781,17.1620156 22.6212187,20.8000313 L18.2248125,20.8000313 L18.2248125,20.8000313 Z"></path>
            </g>
        </g>
    </g>
</svg>