<?xml version="1.0" encoding="UTF-8" standalone="no"?>
<svg width="24px" height="22px" viewBox="0 0 24 22" version="1.1" xmlns="http://www.w3.org/2000/svg" xmlns:xlink="http://www.w3.org/1999/xlink">
    <!-- Generator: Sketch 39.1 (31720) - http://www.bohemiancoding.com/sketch -->
    <title>tickets_vip</title>
    <desc>Created with Sketch.</desc>
    <defs></defs>
    <g id="Icons" stroke="none" stroke-width="1" fill="none" fill-rule="evenodd">
        <g id="tickets_vip" class="whitey" transform="translate(-12.000000, -13.000000)" fill="#000000">
            <g transform="translate(12.000000, 13.000000)" id="Shape">
                <path d="M23.994438,7.30328614 C23.9972386,7.28688228 23.998839,7.27087853 23.9996392,7.25407458 C24.0004394,7.23446998 24.0000393,7.21566556 23.9984389,7.19606096 C23.9968385,7.17925701 23.994438,7.16325325 23.990437,7.1468494 C23.986036,7.12764489 23.9800346,7.10924057 23.9728329,7.09083625 C23.9692321,7.08123399 23.9684319,7.07123164 23.9640308,7.06202948 C23.9608301,7.05522788 23.9552288,7.05002666 23.9516279,7.04322506 C23.9480271,7.03642347 23.9464267,7.02922178 23.9424258,7.02242018 L19.9414862,0.620916886 C19.9230819,0.591710028 19.9014768,0.565303827 19.8770711,0.542098377 C19.876671,0.541698283 19.8762709,0.541698283 19.8758708,0.541298189 C19.8414627,0.508890579 19.8006531,0.485685129 19.7570429,0.467280807 C19.7514416,0.464880244 19.7478407,0.460079116 19.7418393,0.457678553 C19.7374383,0.456078177 19.7326372,0.456878365 19.7282361,0.455678083 C19.6878266,0.442074888 19.6462169,0.432872727 19.6026066,0.432872727 L4.39903631,0.432872727 C4.35582616,0.432872727 4.31461649,0.442074888 4.27500718,0.455277989 C4.27060615,0.456478271 4.26620512,0.455678083 4.26220418,0.457278459 C4.25620277,0.459278928 4.25260192,0.464080056 4.24700061,0.46648062 C4.20539084,0.48368466 4.16618163,0.506089921 4.13217364,0.536497062 C4.13017317,0.538497532 4.12737251,0.539697813 4.12537204,0.541298189 C4.10056622,0.564503639 4.07856105,0.591309934 4.06015673,0.620516793 L0.0592171717,7.02202008 C0.0552162322,7.02842159 0.0536158564,7.03602337 0.0500150108,7.04282497 C0.0464141652,7.04962657 0.0408128498,7.05482779 0.0376120981,7.06162939 C0.0332110646,7.07083155 0.0324108767,7.0808339 0.0284099371,7.09043615 C0.0212082459,7.10884047 0.0152068366,7.1272448 0.0108058031,7.14644931 C0.00720495749,7.16285316 0.0044042998,7.17925701 0.00280392398,7.19606096 C3.26628468e-06,7.21566556 -0.000396827671,7.23487007 0.00040336024,7.25407458 C0.00120354815,7.27087853 0.00280392398,7.28688228 0.00560458167,7.30328614 C0.00880533331,7.32249065 0.0140065547,7.34129506 0.020408058,7.36009948 C0.0256092795,7.37570314 0.0312105948,7.39090671 0.038412286,7.40611028 C0.0420131316,7.41331197 0.0432134135,7.42131385 0.0472143531,7.42851554 C0.0536158564,7.44011827 0.0632181113,7.44892034 0.0704198025,7.45972287 C0.0760211179,7.46812485 0.0792218695,7.47732701 0.0860234668,7.48532889 L11.6843472,21.88311 C11.6851473,21.8843103 11.6859475,21.8851104 11.6867477,21.8859106 L11.6887482,21.8887113 C11.6899485,21.8903117 11.6919489,21.8907118 11.6931492,21.8923121 C11.7259569,21.9319214 11.7667665,21.9619285 11.8111769,21.9859341 C11.8231798,21.9923356 11.8343824,21.9979369 11.8467853,22.0031382 C11.8951967,22.023543 11.9464087,22.0379463 12.0000213,22.0379463 C12.045632,22.0379463 12.0916428,22.0299445 12.1372535,22.0135406 C12.1440551,22.01114 12.1484561,22.0055387 12.1552577,22.0027381 C12.1756625,21.9943361 12.1916663,21.9807329 12.2100706,21.9691302 C12.2404777,21.9499257 12.2688844,21.929921 12.29249,21.9039149 C12.2980913,21.8979135 12.3064933,21.8951128 12.3116945,21.8887113 L23.9144192,7.48532889 C23.9208207,7.47732701 23.9240214,7.46772475 23.9300229,7.45972287 C23.9376246,7.44892034 23.9468268,7.44011827 23.9532283,7.42851554 C23.9572292,7.42131385 23.9584295,7.41331197 23.9620304,7.40611028 C23.9692321,7.39090671 23.9748334,7.37610324 23.9800346,7.36009948 C23.9856359,7.34129506 23.9912372,7.32289074 23.994438,7.30328614 L23.994438,7.30328614 Z M12.8410188,1.23346073 L19.0260712,1.23346073 L17.0816146,6.45268639 L12.8410188,1.23346073 L12.8410188,1.23346073 Z M16.3606453,6.83477611 L7.63979735,6.83477611 L12.0000213,1.46831588 L16.3606453,6.83477611 L16.3606453,6.83477611 Z M6.89042137,6.48749456 L4.97037048,1.23346073 L11.1594239,1.23346073 L6.89042137,6.48749456 L6.89042137,6.48749456 Z M16.6411112,7.63496403 L11.9300048,20.2803336 L7.30931974,7.63496403 L16.6411112,7.63496403 L16.6411112,7.63496403 Z M19.6930279,1.73477846 L22.8805764,6.83517621 L17.7929817,6.83517621 L19.6930279,1.73477846 L19.6930279,1.73477846 Z M4.30341385,1.73997968 L6.16505103,6.83477611 L1.11946615,6.83477611 L4.30341385,1.73997968 L4.30341385,1.73997968 Z M6.45751971,7.63496403 L10.7941381,19.5033511 L1.23349293,7.63496403 L6.45751971,7.63496403 L6.45751971,7.63496403 Z M12.9590465,19.8098231 L17.4949117,7.63496403 L22.7665496,7.63496403 L12.9590465,19.8098231 L12.9590465,19.8098231 Z"></path>
            </g>
        </g>
    </g>
</svg>